<mxfile host="Electron" agent="Mozilla/5.0 (Windows NT 10.0; Win64; x64) AppleWebKit/537.36 (KHTML, like Gecko) draw.io/28.2.5 Chrome/138.0.7204.251 Electron/37.6.1 Safari/537.36" version="28.2.5" pages="3">
  <diagram id="nbMGOUiiA_ShmSUUZPWw" name="menu awal">
    <mxGraphModel dx="2823" dy="2750" grid="1" gridSize="10" guides="1" tooltips="1" connect="1" arrows="1" fold="1" page="1" pageScale="1" pageWidth="850" pageHeight="1100" math="0" shadow="0">
      <root>
        <mxCell id="0" />
        <mxCell id="1" parent="0" />
        <mxCell id="rMz0YVL2xGjH6OmWE0Sn-1" value="&lt;font style=&quot;font-size: 20px;&quot;&gt;Start&lt;/font&gt;" style="ellipse;whiteSpace=wrap;html=1;" parent="1" vertex="1">
          <mxGeometry x="360.5" y="-160" width="113" height="80" as="geometry" />
        </mxCell>
        <mxCell id="rMz0YVL2xGjH6OmWE0Sn-2" value="" style="endArrow=classic;html=1;rounded=0;exitX=0.5;exitY=1;exitDx=0;exitDy=0;" parent="1" source="rMz0YVL2xGjH6OmWE0Sn-1" edge="1">
          <mxGeometry width="50" height="50" relative="1" as="geometry">
            <mxPoint x="407" y="80" as="sourcePoint" />
            <mxPoint x="417" y="-40" as="targetPoint" />
          </mxGeometry>
        </mxCell>
        <mxCell id="VlOuz-B0ZjYz-AYg5qc--2" value="menu_awal" style="shape=process;whiteSpace=wrap;html=1;backgroundOutline=1;" parent="1" vertex="1">
          <mxGeometry x="357" y="-40" width="120" height="60" as="geometry" />
        </mxCell>
        <mxCell id="VlOuz-B0ZjYz-AYg5qc--3" value="" style="endArrow=classic;html=1;rounded=0;exitX=0.5;exitY=1;exitDx=0;exitDy=0;" parent="1" edge="1">
          <mxGeometry width="50" height="50" relative="1" as="geometry">
            <mxPoint x="416.38" y="20" as="sourcePoint" />
            <mxPoint x="416.38" y="60" as="targetPoint" />
          </mxGeometry>
        </mxCell>
        <mxCell id="SRWn1Q9yuplao7Cpr1v3-1" value="input&lt;div&gt;opsi (1/2)&lt;/div&gt;" style="shape=parallelogram;perimeter=parallelogramPerimeter;whiteSpace=wrap;html=1;fixedSize=1;" parent="1" vertex="1">
          <mxGeometry x="350" y="164" width="120" height="60" as="geometry" />
        </mxCell>
        <mxCell id="ohww5IUFhkI_UD2L3ijx-1" value="" style="endArrow=classic;html=1;rounded=0;exitX=0.5;exitY=1;exitDx=0;exitDy=0;" parent="1" source="SRWn1Q9yuplao7Cpr1v3-1" edge="1">
          <mxGeometry width="50" height="50" relative="1" as="geometry">
            <mxPoint x="400" y="359" as="sourcePoint" />
            <mxPoint x="410" y="269" as="targetPoint" />
          </mxGeometry>
        </mxCell>
        <mxCell id="ohww5IUFhkI_UD2L3ijx-2" value="if opsi==1" style="rhombus;whiteSpace=wrap;html=1;" parent="1" vertex="1">
          <mxGeometry x="370" y="399" width="80" height="80" as="geometry" />
        </mxCell>
        <mxCell id="epJ9BHaqAer1TqNpbaaT-1" value="" style="endArrow=classic;html=1;rounded=0;exitX=0.5;exitY=1;exitDx=0;exitDy=0;" parent="1" source="ohww5IUFhkI_UD2L3ijx-2" edge="1">
          <mxGeometry width="50" height="50" relative="1" as="geometry">
            <mxPoint x="490" y="390" as="sourcePoint" />
            <mxPoint x="410" y="510" as="targetPoint" />
          </mxGeometry>
        </mxCell>
        <mxCell id="epJ9BHaqAer1TqNpbaaT-2" value="login_tanpa_regis" style="shape=process;whiteSpace=wrap;html=1;backgroundOutline=1;" parent="1" vertex="1">
          <mxGeometry x="340" y="510" width="140" height="50" as="geometry" />
        </mxCell>
        <mxCell id="uVrhPdMa0JWQ8vbqg5Cm-1" value="&lt;font&gt;output&lt;/font&gt;&lt;div&gt;&lt;font&gt;&quot;Silahkan login&quot;&lt;/font&gt;&lt;/div&gt;" style="shape=parallelogram;perimeter=parallelogramPerimeter;whiteSpace=wrap;html=1;fixedSize=1;" parent="1" vertex="1">
          <mxGeometry x="356.5" y="599" width="110" height="40" as="geometry" />
        </mxCell>
        <mxCell id="uVrhPdMa0JWQ8vbqg5Cm-2" value="" style="endArrow=classic;html=1;rounded=0;" parent="1" edge="1">
          <mxGeometry width="50" height="50" relative="1" as="geometry">
            <mxPoint x="445" y="639" as="sourcePoint" />
            <mxPoint x="475" y="639" as="targetPoint" />
          </mxGeometry>
        </mxCell>
        <mxCell id="uVrhPdMa0JWQ8vbqg5Cm-3" value="" style="endArrow=classic;html=1;rounded=0;exitX=0.5;exitY=1;exitDx=0;exitDy=0;" parent="1" source="uVrhPdMa0JWQ8vbqg5Cm-1" edge="1">
          <mxGeometry width="50" height="50" relative="1" as="geometry">
            <mxPoint x="375" y="758" as="sourcePoint" />
            <mxPoint x="412" y="678" as="targetPoint" />
          </mxGeometry>
        </mxCell>
        <mxCell id="uVrhPdMa0JWQ8vbqg5Cm-4" value="&lt;font style=&quot;font-size: 11px;&quot;&gt;input&lt;/font&gt;&lt;div&gt;&lt;font style=&quot;font-size: 11px;&quot;&gt;usn_login dan&lt;/font&gt;&lt;/div&gt;&lt;div&gt;&lt;font style=&quot;font-size: 11px;&quot;&gt;pw_login&lt;/font&gt;&lt;/div&gt;" style="shape=parallelogram;perimeter=parallelogramPerimeter;whiteSpace=wrap;html=1;fixedSize=1;" parent="1" vertex="1">
          <mxGeometry x="353" y="678" width="113.5" height="52" as="geometry" />
        </mxCell>
        <mxCell id="uVrhPdMa0JWQ8vbqg5Cm-5" value="" style="endArrow=classic;html=1;rounded=0;exitX=0.5;exitY=1;exitDx=0;exitDy=0;" parent="1" source="uVrhPdMa0JWQ8vbqg5Cm-4" edge="1">
          <mxGeometry width="50" height="50" relative="1" as="geometry">
            <mxPoint x="375" y="758" as="sourcePoint" />
            <mxPoint x="410" y="768" as="targetPoint" />
          </mxGeometry>
        </mxCell>
        <mxCell id="uVrhPdMa0JWQ8vbqg5Cm-6" value="&lt;font style=&quot;font-size: 11px;&quot;&gt;if usn_login and pw_login in admin terdaftar&lt;/font&gt;" style="rhombus;whiteSpace=wrap;html=1;" parent="1" vertex="1">
          <mxGeometry x="349.75" y="768" width="120" height="110" as="geometry" />
        </mxCell>
        <mxCell id="uVrhPdMa0JWQ8vbqg5Cm-7" value="" style="endArrow=classic;html=1;rounded=0;exitX=0.5;exitY=1;exitDx=0;exitDy=0;" parent="1" edge="1">
          <mxGeometry width="50" height="50" relative="1" as="geometry">
            <mxPoint x="409.22" y="878" as="sourcePoint" />
            <mxPoint x="409" y="920" as="targetPoint" />
          </mxGeometry>
        </mxCell>
        <mxCell id="uVrhPdMa0JWQ8vbqg5Cm-8" value="True" style="text;html=1;align=center;verticalAlign=middle;resizable=0;points=[];autosize=1;strokeColor=none;fillColor=none;" parent="1" vertex="1">
          <mxGeometry x="403" y="877" width="50" height="30" as="geometry" />
        </mxCell>
        <mxCell id="uVrhPdMa0JWQ8vbqg5Cm-9" value="is_admin=True" style="rounded=0;whiteSpace=wrap;html=1;" parent="1" vertex="1">
          <mxGeometry x="367.1300000000001" y="918" width="85.25" height="40" as="geometry" />
        </mxCell>
        <mxCell id="uVrhPdMa0JWQ8vbqg5Cm-10" value="" style="endArrow=classic;html=1;rounded=0;exitX=0.5;exitY=1;exitDx=0;exitDy=0;" parent="1" source="uVrhPdMa0JWQ8vbqg5Cm-9" edge="1">
          <mxGeometry width="50" height="50" relative="1" as="geometry">
            <mxPoint x="485" y="888" as="sourcePoint" />
            <mxPoint x="410" y="988" as="targetPoint" />
          </mxGeometry>
        </mxCell>
        <mxCell id="uVrhPdMa0JWQ8vbqg5Cm-11" value="output&lt;div&gt;&quot;Login admin berhasil!&quot;&lt;/div&gt;" style="shape=parallelogram;perimeter=parallelogramPerimeter;whiteSpace=wrap;html=1;fixedSize=1;" parent="1" vertex="1">
          <mxGeometry x="348" y="988" width="120" height="50" as="geometry" />
        </mxCell>
        <mxCell id="uVrhPdMa0JWQ8vbqg5Cm-12" value="" style="endArrow=classic;html=1;rounded=0;exitX=0.75;exitY=1;exitDx=0;exitDy=0;" parent="1" source="uVrhPdMa0JWQ8vbqg5Cm-11" edge="1">
          <mxGeometry width="50" height="50" relative="1" as="geometry">
            <mxPoint x="495" y="908" as="sourcePoint" />
            <mxPoint x="475" y="1038" as="targetPoint" />
          </mxGeometry>
        </mxCell>
        <mxCell id="uVrhPdMa0JWQ8vbqg5Cm-13" value="" style="endArrow=classic;html=1;rounded=0;exitX=1;exitY=0.5;exitDx=0;exitDy=0;" parent="1" source="uVrhPdMa0JWQ8vbqg5Cm-6" edge="1">
          <mxGeometry width="50" height="50" relative="1" as="geometry">
            <mxPoint x="625" y="808" as="sourcePoint" />
            <mxPoint x="515" y="823" as="targetPoint" />
          </mxGeometry>
        </mxCell>
        <mxCell id="uVrhPdMa0JWQ8vbqg5Cm-14" value="False" style="text;html=1;align=center;verticalAlign=middle;resizable=0;points=[];autosize=1;strokeColor=none;fillColor=none;" parent="1" vertex="1">
          <mxGeometry x="465" y="798" width="50" height="30" as="geometry" />
        </mxCell>
        <mxCell id="uVrhPdMa0JWQ8vbqg5Cm-15" value="&lt;font style=&quot;font-size: 11px;&quot;&gt;elif usn_login and pw_login in member terdaftar&lt;/font&gt;" style="rhombus;whiteSpace=wrap;html=1;" parent="1" vertex="1">
          <mxGeometry x="515" y="767" width="120" height="110" as="geometry" />
        </mxCell>
        <mxCell id="uVrhPdMa0JWQ8vbqg5Cm-16" value="" style="endArrow=classic;html=1;rounded=0;exitX=0.5;exitY=1;exitDx=0;exitDy=0;" parent="1" edge="1">
          <mxGeometry width="50" height="50" relative="1" as="geometry">
            <mxPoint x="574.22" y="877" as="sourcePoint" />
            <mxPoint x="574.22" y="915" as="targetPoint" />
          </mxGeometry>
        </mxCell>
        <mxCell id="uVrhPdMa0JWQ8vbqg5Cm-17" value="True" style="text;html=1;align=center;verticalAlign=middle;resizable=0;points=[];autosize=1;strokeColor=none;fillColor=none;" parent="1" vertex="1">
          <mxGeometry x="565" y="877" width="50" height="30" as="geometry" />
        </mxCell>
        <mxCell id="uVrhPdMa0JWQ8vbqg5Cm-18" value="is_admin=False" style="rounded=0;whiteSpace=wrap;html=1;" parent="1" vertex="1">
          <mxGeometry x="524.8699999999999" y="913" width="100.25" height="40" as="geometry" />
        </mxCell>
        <mxCell id="uVrhPdMa0JWQ8vbqg5Cm-19" value="" style="endArrow=classic;html=1;rounded=0;exitX=0.5;exitY=1;exitDx=0;exitDy=0;" parent="1" source="uVrhPdMa0JWQ8vbqg5Cm-18" edge="1">
          <mxGeometry width="50" height="50" relative="1" as="geometry">
            <mxPoint x="650" y="887" as="sourcePoint" />
            <mxPoint x="575" y="987" as="targetPoint" />
          </mxGeometry>
        </mxCell>
        <mxCell id="uVrhPdMa0JWQ8vbqg5Cm-20" value="output&lt;div&gt;&quot;Login member berhasil!&quot;&lt;/div&gt;" style="shape=parallelogram;perimeter=parallelogramPerimeter;whiteSpace=wrap;html=1;fixedSize=1;" parent="1" vertex="1">
          <mxGeometry x="513" y="987" width="120" height="50" as="geometry" />
        </mxCell>
        <mxCell id="uVrhPdMa0JWQ8vbqg5Cm-21" value="" style="endArrow=classic;html=1;rounded=0;exitX=0.75;exitY=1;exitDx=0;exitDy=0;" parent="1" source="uVrhPdMa0JWQ8vbqg5Cm-20" edge="1">
          <mxGeometry width="50" height="50" relative="1" as="geometry">
            <mxPoint x="660" y="907" as="sourcePoint" />
            <mxPoint x="640" y="1037" as="targetPoint" />
          </mxGeometry>
        </mxCell>
        <mxCell id="uVrhPdMa0JWQ8vbqg5Cm-22" value="" style="endArrow=classic;html=1;rounded=0;exitX=1;exitY=0.5;exitDx=0;exitDy=0;" parent="1" source="uVrhPdMa0JWQ8vbqg5Cm-15" edge="1">
          <mxGeometry width="50" height="50" relative="1" as="geometry">
            <mxPoint x="785" y="1018" as="sourcePoint" />
            <mxPoint x="685" y="822" as="targetPoint" />
          </mxGeometry>
        </mxCell>
        <mxCell id="uVrhPdMa0JWQ8vbqg5Cm-23" value="False" style="text;html=1;align=center;verticalAlign=middle;resizable=0;points=[];autosize=1;strokeColor=none;fillColor=none;" parent="1" vertex="1">
          <mxGeometry x="633" y="798" width="50" height="30" as="geometry" />
        </mxCell>
        <mxCell id="uVrhPdMa0JWQ8vbqg5Cm-24" value="output&lt;div&gt;&quot;Login gagal!&quot;&lt;/div&gt;" style="shape=parallelogram;perimeter=parallelogramPerimeter;whiteSpace=wrap;html=1;fixedSize=1;" parent="1" vertex="1">
          <mxGeometry x="675" y="796.47" width="120" height="50" as="geometry" />
        </mxCell>
        <mxCell id="uVrhPdMa0JWQ8vbqg5Cm-25" value="" style="endArrow=classic;html=1;rounded=0;exitX=0.75;exitY=1;exitDx=0;exitDy=0;" parent="1" source="uVrhPdMa0JWQ8vbqg5Cm-24" edge="1">
          <mxGeometry width="50" height="50" relative="1" as="geometry">
            <mxPoint x="822" y="716.47" as="sourcePoint" />
            <mxPoint x="802" y="846.47" as="targetPoint" />
          </mxGeometry>
        </mxCell>
        <mxCell id="uVrhPdMa0JWQ8vbqg5Cm-26" value="" style="endArrow=classic;html=1;rounded=0;exitX=0.5;exitY=0;exitDx=0;exitDy=0;entryX=1;entryY=0.5;entryDx=0;entryDy=0;" parent="1" source="uVrhPdMa0JWQ8vbqg5Cm-24" target="uVrhPdMa0JWQ8vbqg5Cm-4" edge="1">
          <mxGeometry width="50" height="50" relative="1" as="geometry">
            <mxPoint x="765" y="868" as="sourcePoint" />
            <mxPoint x="815" y="818" as="targetPoint" />
            <Array as="points">
              <mxPoint x="735" y="704" />
            </Array>
          </mxGeometry>
        </mxCell>
        <mxCell id="uVrhPdMa0JWQ8vbqg5Cm-27" value="" style="verticalLabelPosition=bottom;verticalAlign=top;html=1;shape=offPageConnector;rounded=0;size=0.5;" parent="1" vertex="1">
          <mxGeometry x="383.5" y="1119" width="60" height="60" as="geometry" />
        </mxCell>
        <mxCell id="uVrhPdMa0JWQ8vbqg5Cm-28" value="" style="endArrow=classic;html=1;rounded=0;entryX=0.155;entryY=0.05;entryDx=0;entryDy=0;entryPerimeter=0;" parent="1" edge="1">
          <mxGeometry width="50" height="50" relative="1" as="geometry">
            <mxPoint x="336" y="680" as="sourcePoint" />
            <mxPoint x="373.5925" y="680.6" as="targetPoint" />
          </mxGeometry>
        </mxCell>
        <mxCell id="uVrhPdMa0JWQ8vbqg5Cm-29" value="" style="endArrow=classic;html=1;rounded=0;exitX=0.536;exitY=1.003;exitDx=0;exitDy=0;exitPerimeter=0;entryX=0.639;entryY=-0.038;entryDx=0;entryDy=0;entryPerimeter=0;" parent="1" source="uVrhPdMa0JWQ8vbqg5Cm-11" edge="1">
          <mxGeometry width="50" height="50" relative="1" as="geometry">
            <mxPoint x="583" y="1090" as="sourcePoint" />
            <mxPoint x="412.6700000000001" y="1118.48" as="targetPoint" />
          </mxGeometry>
        </mxCell>
        <mxCell id="uVrhPdMa0JWQ8vbqg5Cm-30" value="&lt;span style=&quot;font-size: 20px;&quot;&gt;1&lt;/span&gt;" style="text;html=1;align=center;verticalAlign=middle;resizable=0;points=[];autosize=1;strokeColor=none;fillColor=none;" parent="1" vertex="1">
          <mxGeometry x="398.5" y="1119" width="30" height="40" as="geometry" />
        </mxCell>
        <mxCell id="uVrhPdMa0JWQ8vbqg5Cm-31" value="" style="endArrow=classic;html=1;rounded=0;exitX=0.5;exitY=1;exitDx=0;exitDy=0;entryX=0.5;entryY=0;entryDx=0;entryDy=0;" parent="1" target="uVrhPdMa0JWQ8vbqg5Cm-1" edge="1">
          <mxGeometry width="50" height="50" relative="1" as="geometry">
            <mxPoint x="412" y="560" as="sourcePoint" />
            <mxPoint x="713" y="800" as="targetPoint" />
          </mxGeometry>
        </mxCell>
        <mxCell id="uVrhPdMa0JWQ8vbqg5Cm-32" value="" style="verticalLabelPosition=bottom;verticalAlign=top;html=1;shape=offPageConnector;rounded=0;size=0.5;" parent="1" vertex="1">
          <mxGeometry x="542.5" y="1118" width="60" height="60" as="geometry" />
        </mxCell>
        <mxCell id="uVrhPdMa0JWQ8vbqg5Cm-33" value="" style="endArrow=classic;html=1;rounded=0;exitX=0.536;exitY=1.003;exitDx=0;exitDy=0;exitPerimeter=0;entryX=0.639;entryY=-0.038;entryDx=0;entryDy=0;entryPerimeter=0;" parent="1" edge="1">
          <mxGeometry width="50" height="50" relative="1" as="geometry">
            <mxPoint x="571" y="1037" as="sourcePoint" />
            <mxPoint x="571.6700000000001" y="1117.48" as="targetPoint" />
          </mxGeometry>
        </mxCell>
        <mxCell id="uVrhPdMa0JWQ8vbqg5Cm-34" value="&lt;span style=&quot;font-size: 20px;&quot;&gt;2&lt;/span&gt;" style="text;html=1;align=center;verticalAlign=middle;resizable=0;points=[];autosize=1;strokeColor=none;fillColor=none;" parent="1" vertex="1">
          <mxGeometry x="557.5" y="1118" width="30" height="40" as="geometry" />
        </mxCell>
        <mxCell id="uVrhPdMa0JWQ8vbqg5Cm-37" value="" style="endArrow=classic;html=1;rounded=0;exitX=1;exitY=0.5;exitDx=0;exitDy=0;entryX=0;entryY=0.5;entryDx=0;entryDy=0;" parent="1" source="ohww5IUFhkI_UD2L3ijx-2" target="uVrhPdMa0JWQ8vbqg5Cm-38" edge="1">
          <mxGeometry width="50" height="50" relative="1" as="geometry">
            <mxPoint x="660" y="710" as="sourcePoint" />
            <mxPoint x="530" y="439" as="targetPoint" />
          </mxGeometry>
        </mxCell>
        <mxCell id="uVrhPdMa0JWQ8vbqg5Cm-38" value="if opsi==2" style="rhombus;whiteSpace=wrap;html=1;" parent="1" vertex="1">
          <mxGeometry x="557.5" y="399" width="80" height="80" as="geometry" />
        </mxCell>
        <mxCell id="uVrhPdMa0JWQ8vbqg5Cm-39" value="" style="endArrow=classic;html=1;rounded=0;exitX=0.5;exitY=1;exitDx=0;exitDy=0;entryX=0.5;entryY=0;entryDx=0;entryDy=0;" parent="1" source="uVrhPdMa0JWQ8vbqg5Cm-38" target="uVrhPdMa0JWQ8vbqg5Cm-50" edge="1">
          <mxGeometry width="50" height="50" relative="1" as="geometry">
            <mxPoint x="660" y="710" as="sourcePoint" />
            <mxPoint x="1040" y="630" as="targetPoint" />
            <Array as="points">
              <mxPoint x="598" y="560" />
              <mxPoint x="1010" y="560" />
            </Array>
          </mxGeometry>
        </mxCell>
        <mxCell id="uVrhPdMa0JWQ8vbqg5Cm-42" value="" style="endArrow=classic;html=1;rounded=0;" parent="1" edge="1">
          <mxGeometry width="50" height="50" relative="1" as="geometry">
            <mxPoint x="637.5" y="438.37" as="sourcePoint" />
            <mxPoint x="747.5" y="438.37" as="targetPoint" />
          </mxGeometry>
        </mxCell>
        <mxCell id="uVrhPdMa0JWQ8vbqg5Cm-43" value="opsi==angka" style="rhombus;whiteSpace=wrap;html=1;" parent="1" vertex="1">
          <mxGeometry x="369.5" y="268" width="80" height="80" as="geometry" />
        </mxCell>
        <mxCell id="uVrhPdMa0JWQ8vbqg5Cm-44" value="" style="endArrow=classic;html=1;rounded=0;exitX=0.5;exitY=1;exitDx=0;exitDy=0;entryX=0.5;entryY=0;entryDx=0;entryDy=0;" parent="1" source="uVrhPdMa0JWQ8vbqg5Cm-43" target="ohww5IUFhkI_UD2L3ijx-2" edge="1">
          <mxGeometry width="50" height="50" relative="1" as="geometry">
            <mxPoint x="580" y="330" as="sourcePoint" />
            <mxPoint x="630" y="280" as="targetPoint" />
          </mxGeometry>
        </mxCell>
        <mxCell id="uVrhPdMa0JWQ8vbqg5Cm-45" value="" style="endArrow=classic;html=1;rounded=0;exitX=1;exitY=0.5;exitDx=0;exitDy=0;" parent="1" source="uVrhPdMa0JWQ8vbqg5Cm-43" edge="1">
          <mxGeometry width="50" height="50" relative="1" as="geometry">
            <mxPoint x="580" y="330" as="sourcePoint" />
            <mxPoint x="520" y="308" as="targetPoint" />
          </mxGeometry>
        </mxCell>
        <mxCell id="uVrhPdMa0JWQ8vbqg5Cm-46" value="output&lt;div&gt;&quot;input bukan angka.&quot;&lt;/div&gt;" style="shape=parallelogram;perimeter=parallelogramPerimeter;whiteSpace=wrap;html=1;fixedSize=1;" parent="1" vertex="1">
          <mxGeometry x="509" y="283" width="141" height="50" as="geometry" />
        </mxCell>
        <mxCell id="uVrhPdMa0JWQ8vbqg5Cm-47" value="output&lt;div&gt;&quot;Pilihan tidak valid.&quot;&lt;/div&gt;" style="shape=parallelogram;perimeter=parallelogramPerimeter;whiteSpace=wrap;html=1;fixedSize=1;" parent="1" vertex="1">
          <mxGeometry x="736" y="411" width="140" height="60" as="geometry" />
        </mxCell>
        <mxCell id="uVrhPdMa0JWQ8vbqg5Cm-48" value="" style="endArrow=classic;html=1;rounded=0;entryX=1;entryY=0.5;entryDx=0;entryDy=0;exitX=0.931;exitY=0.54;exitDx=0;exitDy=0;exitPerimeter=0;" parent="1" source="uVrhPdMa0JWQ8vbqg5Cm-46" target="VlOuz-B0ZjYz-AYg5qc--2" edge="1">
          <mxGeometry width="50" height="50" relative="1" as="geometry">
            <mxPoint x="625" y="318" as="sourcePoint" />
            <mxPoint x="470" y="90" as="targetPoint" />
            <Array as="points">
              <mxPoint x="730" y="310" />
              <mxPoint x="730" y="-10" />
            </Array>
          </mxGeometry>
        </mxCell>
        <mxCell id="uVrhPdMa0JWQ8vbqg5Cm-49" value="" style="endArrow=classic;html=1;rounded=0;exitX=1;exitY=0.5;exitDx=0;exitDy=0;" parent="1" source="uVrhPdMa0JWQ8vbqg5Cm-47" edge="1">
          <mxGeometry width="50" height="50" relative="1" as="geometry">
            <mxPoint x="690" y="400" as="sourcePoint" />
            <mxPoint x="720" y="-10" as="targetPoint" />
            <Array as="points">
              <mxPoint x="920" y="441" />
              <mxPoint x="920" y="320" />
              <mxPoint x="920" y="-10" />
            </Array>
          </mxGeometry>
        </mxCell>
        <mxCell id="uVrhPdMa0JWQ8vbqg5Cm-50" value="registrasi_login" style="shape=process;whiteSpace=wrap;html=1;backgroundOutline=1;" parent="1" vertex="1">
          <mxGeometry x="950" y="627" width="120" height="50" as="geometry" />
        </mxCell>
        <mxCell id="uVrhPdMa0JWQ8vbqg5Cm-51" value="" style="endArrow=classic;html=1;rounded=0;exitX=0.5;exitY=1;exitDx=0;exitDy=0;" parent="1" source="uVrhPdMa0JWQ8vbqg5Cm-50" edge="1">
          <mxGeometry width="50" height="50" relative="1" as="geometry">
            <mxPoint x="1010" y="680" as="sourcePoint" />
            <mxPoint x="1010" y="716" as="targetPoint" />
            <Array as="points" />
          </mxGeometry>
        </mxCell>
        <mxCell id="fkueopjs2P53fLMHt61n-2" value="&lt;font style=&quot;font-size: 11px;&quot;&gt;output&lt;/font&gt;&lt;div&gt;&lt;font style=&quot;font-size: 11px;&quot;&gt;&quot;Silahkan registrasi member!&quot;&lt;/font&gt;&lt;/div&gt;" style="shape=parallelogram;perimeter=parallelogramPerimeter;whiteSpace=wrap;html=1;fixedSize=1;" parent="1" vertex="1">
          <mxGeometry x="930" y="716" width="160" height="40" as="geometry" />
        </mxCell>
        <mxCell id="fkueopjs2P53fLMHt61n-3" value="" style="endArrow=classic;html=1;rounded=0;" parent="1" edge="1">
          <mxGeometry width="50" height="50" relative="1" as="geometry">
            <mxPoint x="1070.5" y="756" as="sourcePoint" />
            <mxPoint x="1100.5" y="756" as="targetPoint" />
          </mxGeometry>
        </mxCell>
        <mxCell id="fkueopjs2P53fLMHt61n-6" value="&lt;font style=&quot;font-size: 11px;&quot;&gt;input&lt;/font&gt;&lt;div&gt;&lt;font style=&quot;font-size: 11px;&quot;&gt;usn_baru dan&lt;/font&gt;&lt;/div&gt;&lt;div&gt;&lt;font style=&quot;font-size: 11px;&quot;&gt;pw_baru&lt;/font&gt;&lt;/div&gt;" style="shape=parallelogram;perimeter=parallelogramPerimeter;whiteSpace=wrap;html=1;fixedSize=1;" parent="1" vertex="1">
          <mxGeometry x="950" y="784" width="120" height="52" as="geometry" />
        </mxCell>
        <mxCell id="fkueopjs2P53fLMHt61n-7" value="" style="endArrow=classic;html=1;rounded=0;" parent="1" edge="1">
          <mxGeometry width="50" height="50" relative="1" as="geometry">
            <mxPoint x="943" y="784" as="sourcePoint" />
            <mxPoint x="973" y="784" as="targetPoint" />
          </mxGeometry>
        </mxCell>
        <mxCell id="fkueopjs2P53fLMHt61n-8" value="&lt;span style=&quot;font-size: 11px;&quot;&gt;if usn baru in&amp;nbsp;&lt;/span&gt;&lt;div&gt;&lt;span style=&quot;font-size: 11px;&quot;&gt;usn terdaftar&lt;/span&gt;&lt;/div&gt;" style="rhombus;whiteSpace=wrap;html=1;" parent="1" vertex="1">
          <mxGeometry x="950" y="861" width="120" height="60" as="geometry" />
        </mxCell>
        <mxCell id="fkueopjs2P53fLMHt61n-9" value="True" style="text;html=1;align=center;verticalAlign=middle;resizable=0;points=[];autosize=1;strokeColor=none;fillColor=none;" parent="1" vertex="1">
          <mxGeometry x="1006" y="921" width="50" height="30" as="geometry" />
        </mxCell>
        <mxCell id="fkueopjs2P53fLMHt61n-10" value="&lt;font style=&quot;font-size: 11px;&quot;&gt;output&lt;/font&gt;&lt;div&gt;&lt;font style=&quot;font-size: 11px;&quot;&gt;&quot;Username telah dipakai!&quot;&lt;/font&gt;&lt;/div&gt;" style="shape=parallelogram;perimeter=parallelogramPerimeter;whiteSpace=wrap;html=1;fixedSize=1;" parent="1" vertex="1">
          <mxGeometry x="950.5" y="960" width="120" height="50" as="geometry" />
        </mxCell>
        <mxCell id="fkueopjs2P53fLMHt61n-11" value="" style="endArrow=classic;html=1;rounded=0;exitX=0.83;exitY=0.979;exitDx=0;exitDy=0;exitPerimeter=0;" parent="1" source="fkueopjs2P53fLMHt61n-10" edge="1">
          <mxGeometry width="50" height="50" relative="1" as="geometry">
            <mxPoint x="1147" y="941" as="sourcePoint" />
            <mxPoint x="1085" y="1009" as="targetPoint" />
          </mxGeometry>
        </mxCell>
        <mxCell id="fkueopjs2P53fLMHt61n-12" value="" style="endArrow=classic;html=1;rounded=0;exitX=0.5;exitY=1;exitDx=0;exitDy=0;" parent="1" source="fkueopjs2P53fLMHt61n-8" edge="1">
          <mxGeometry width="50" height="50" relative="1" as="geometry">
            <mxPoint x="1227" y="991" as="sourcePoint" />
            <mxPoint x="1010" y="961" as="targetPoint" />
          </mxGeometry>
        </mxCell>
        <mxCell id="fkueopjs2P53fLMHt61n-13" value="" style="endArrow=classic;html=1;rounded=0;" parent="1" edge="1">
          <mxGeometry width="50" height="50" relative="1" as="geometry">
            <mxPoint x="1009" y="756" as="sourcePoint" />
            <mxPoint x="1009" y="785" as="targetPoint" />
          </mxGeometry>
        </mxCell>
        <mxCell id="fkueopjs2P53fLMHt61n-14" value="" style="endArrow=classic;html=1;rounded=0;exitX=0.5;exitY=1;exitDx=0;exitDy=0;entryX=0.5;entryY=0;entryDx=0;entryDy=0;" parent="1" source="fkueopjs2P53fLMHt61n-6" target="fkueopjs2P53fLMHt61n-8" edge="1">
          <mxGeometry width="50" height="50" relative="1" as="geometry">
            <mxPoint x="1375" y="1076" as="sourcePoint" />
            <mxPoint x="1425" y="1026" as="targetPoint" />
          </mxGeometry>
        </mxCell>
        <mxCell id="fkueopjs2P53fLMHt61n-19" value="&lt;font style=&quot;font-size: 11px;&quot;&gt;output&lt;/font&gt;&lt;div&gt;&lt;span style=&quot;font-size: 11px;&quot;&gt;&quot;Registrasi berhasil, silahkan login!&quot;&lt;/span&gt;&lt;/div&gt;" style="shape=parallelogram;perimeter=parallelogramPerimeter;whiteSpace=wrap;html=1;fixedSize=1;" parent="1" vertex="1">
          <mxGeometry x="1128" y="866" width="120" height="50" as="geometry" />
        </mxCell>
        <mxCell id="fkueopjs2P53fLMHt61n-20" value="" style="endArrow=classic;html=1;rounded=0;" parent="1" edge="1">
          <mxGeometry width="50" height="50" relative="1" as="geometry">
            <mxPoint x="1228" y="914.75" as="sourcePoint" />
            <mxPoint x="1259" y="914.75" as="targetPoint" />
          </mxGeometry>
        </mxCell>
        <mxCell id="fkueopjs2P53fLMHt61n-21" value="&lt;font style=&quot;font-size: 11px;&quot;&gt;input&lt;/font&gt;&lt;div&gt;&lt;font style=&quot;font-size: 11px;&quot;&gt;usn_login dan&lt;/font&gt;&lt;/div&gt;&lt;div&gt;&lt;font style=&quot;font-size: 11px;&quot;&gt;pw_login&lt;/font&gt;&lt;/div&gt;" style="shape=parallelogram;perimeter=parallelogramPerimeter;whiteSpace=wrap;html=1;fixedSize=1;" parent="1" vertex="1">
          <mxGeometry x="1128" y="951" width="120" height="52" as="geometry" />
        </mxCell>
        <mxCell id="fkueopjs2P53fLMHt61n-22" value="" style="endArrow=classic;html=1;rounded=0;" parent="1" edge="1">
          <mxGeometry width="50" height="50" relative="1" as="geometry">
            <mxPoint x="1118" y="952" as="sourcePoint" />
            <mxPoint x="1148" y="952" as="targetPoint" />
          </mxGeometry>
        </mxCell>
        <mxCell id="fkueopjs2P53fLMHt61n-23" value="&lt;span style=&quot;font-size: 11px;&quot;&gt;if usn_login!=usn_baru or pw_login!=pw_baru&lt;/span&gt;" style="rhombus;whiteSpace=wrap;html=1;" parent="1" vertex="1">
          <mxGeometry x="1103" y="1031" width="170" height="80" as="geometry" />
        </mxCell>
        <mxCell id="fkueopjs2P53fLMHt61n-24" value="" style="endArrow=classic;html=1;rounded=0;exitX=0.5;exitY=1;exitDx=0;exitDy=0;" parent="1" edge="1">
          <mxGeometry width="50" height="50" relative="1" as="geometry">
            <mxPoint x="1187.5700000000002" y="1003" as="sourcePoint" />
            <mxPoint x="1187.5700000000002" y="1033" as="targetPoint" />
          </mxGeometry>
        </mxCell>
        <mxCell id="fkueopjs2P53fLMHt61n-25" value="&lt;font style=&quot;font-size: 11px;&quot;&gt;True&lt;/font&gt;" style="text;html=1;align=center;verticalAlign=middle;resizable=0;points=[];autosize=1;strokeColor=none;fillColor=none;" parent="1" vertex="1">
          <mxGeometry x="1183" y="1125" width="50" height="30" as="geometry" />
        </mxCell>
        <mxCell id="fkueopjs2P53fLMHt61n-26" value="&lt;font style=&quot;font-size: 11px;&quot;&gt;output&lt;/font&gt;&lt;div&gt;&lt;font style=&quot;font-size: 11px;&quot;&gt;&quot;Format salah, login gagal!!&quot;&lt;/font&gt;&lt;/div&gt;" style="shape=parallelogram;perimeter=parallelogramPerimeter;whiteSpace=wrap;html=1;fixedSize=1;" parent="1" vertex="1">
          <mxGeometry x="1128" y="1176" width="120" height="50" as="geometry" />
        </mxCell>
        <mxCell id="fkueopjs2P53fLMHt61n-27" value="" style="endArrow=classic;html=1;rounded=0;exitX=0.83;exitY=0.979;exitDx=0;exitDy=0;exitPerimeter=0;" parent="1" edge="1">
          <mxGeometry width="50" height="50" relative="1" as="geometry">
            <mxPoint x="1225" y="1226" as="sourcePoint" />
            <mxPoint x="1255" y="1226" as="targetPoint" />
          </mxGeometry>
        </mxCell>
        <mxCell id="fkueopjs2P53fLMHt61n-28" value="" style="endArrow=classic;html=1;rounded=0;exitX=0.5;exitY=1;exitDx=0;exitDy=0;entryX=0.5;entryY=0;entryDx=0;entryDy=0;" parent="1" source="fkueopjs2P53fLMHt61n-23" target="fkueopjs2P53fLMHt61n-26" edge="1">
          <mxGeometry width="50" height="50" relative="1" as="geometry">
            <mxPoint x="1410" y="1201" as="sourcePoint" />
            <mxPoint x="1188" y="1146" as="targetPoint" />
          </mxGeometry>
        </mxCell>
        <mxCell id="fkueopjs2P53fLMHt61n-29" value="" style="endArrow=classic;html=1;rounded=0;exitX=0.5;exitY=1;exitDx=0;exitDy=0;" parent="1" source="fkueopjs2P53fLMHt61n-19" edge="1">
          <mxGeometry width="50" height="50" relative="1" as="geometry">
            <mxPoint x="1348" y="976" as="sourcePoint" />
            <mxPoint x="1188" y="954" as="targetPoint" />
          </mxGeometry>
        </mxCell>
        <mxCell id="fkueopjs2P53fLMHt61n-30" value="" style="endArrow=classic;html=1;rounded=0;exitX=1;exitY=0.5;exitDx=0;exitDy=0;entryX=0;entryY=0.5;entryDx=0;entryDy=0;" parent="1" source="fkueopjs2P53fLMHt61n-8" target="fkueopjs2P53fLMHt61n-19" edge="1">
          <mxGeometry width="50" height="50" relative="1" as="geometry">
            <mxPoint x="1175" y="1016" as="sourcePoint" />
            <mxPoint x="1139" y="893" as="targetPoint" />
          </mxGeometry>
        </mxCell>
        <mxCell id="fkueopjs2P53fLMHt61n-31" value="&lt;font style=&quot;font-size: 11px;&quot;&gt;output&lt;/font&gt;&lt;div&gt;&lt;font style=&quot;font-size: 11px;&quot;&gt;&quot;Login berhasil!&quot;&lt;/font&gt;&lt;/div&gt;" style="shape=parallelogram;perimeter=parallelogramPerimeter;whiteSpace=wrap;html=1;fixedSize=1;" parent="1" vertex="1">
          <mxGeometry x="1485" y="1051" width="120" height="40" as="geometry" />
        </mxCell>
        <mxCell id="fkueopjs2P53fLMHt61n-32" value="" style="endArrow=classic;html=1;rounded=0;exitX=0.83;exitY=0.979;exitDx=0;exitDy=0;exitPerimeter=0;" parent="1" edge="1">
          <mxGeometry width="50" height="50" relative="1" as="geometry">
            <mxPoint x="1585" y="1090.5700000000002" as="sourcePoint" />
            <mxPoint x="1615" y="1090.5700000000002" as="targetPoint" />
          </mxGeometry>
        </mxCell>
        <mxCell id="fkueopjs2P53fLMHt61n-33" value="" style="endArrow=classic;html=1;rounded=0;exitX=1;exitY=0.5;exitDx=0;exitDy=0;" parent="1" source="fkueopjs2P53fLMHt61n-23" edge="1">
          <mxGeometry width="50" height="50" relative="1" as="geometry">
            <mxPoint x="1295" y="947" as="sourcePoint" />
            <mxPoint x="1325" y="1071" as="targetPoint" />
            <Array as="points">
              <mxPoint x="1295" y="1071" />
            </Array>
          </mxGeometry>
        </mxCell>
        <mxCell id="fkueopjs2P53fLMHt61n-34" value="False&amp;nbsp;" style="text;html=1;align=center;verticalAlign=middle;resizable=0;points=[];autosize=1;strokeColor=none;fillColor=none;" parent="1" vertex="1">
          <mxGeometry x="1265" y="1042" width="60" height="30" as="geometry" />
        </mxCell>
        <mxCell id="fkueopjs2P53fLMHt61n-35" value="False" style="text;html=1;align=center;verticalAlign=middle;resizable=0;points=[];autosize=1;strokeColor=none;fillColor=none;" parent="1" vertex="1">
          <mxGeometry x="1070" y="864" width="50" height="30" as="geometry" />
        </mxCell>
        <mxCell id="fkueopjs2P53fLMHt61n-36" value="" style="endArrow=classic;html=1;rounded=0;exitX=1;exitY=0.5;exitDx=0;exitDy=0;entryX=1;entryY=0.75;entryDx=0;entryDy=0;" parent="1" source="fkueopjs2P53fLMHt61n-26" target="fkueopjs2P53fLMHt61n-21" edge="1">
          <mxGeometry width="50" height="50" relative="1" as="geometry">
            <mxPoint x="1255" y="956" as="sourcePoint" />
            <mxPoint x="1305" y="906" as="targetPoint" />
            <Array as="points">
              <mxPoint x="1645" y="1201" />
              <mxPoint x="1645" y="987" />
            </Array>
          </mxGeometry>
        </mxCell>
        <mxCell id="fkueopjs2P53fLMHt61n-39" value="" style="verticalLabelPosition=bottom;verticalAlign=top;html=1;shape=offPageConnector;rounded=0;size=0.5;" parent="1" vertex="1">
          <mxGeometry x="1515" y="1125" width="60" height="60" as="geometry" />
        </mxCell>
        <mxCell id="fkueopjs2P53fLMHt61n-40" value="&lt;span style=&quot;font-size: 20px;&quot;&gt;2&lt;/span&gt;" style="text;html=1;align=center;verticalAlign=middle;resizable=0;points=[];autosize=1;strokeColor=none;fillColor=none;" parent="1" vertex="1">
          <mxGeometry x="1530" y="1125" width="30" height="40" as="geometry" />
        </mxCell>
        <mxCell id="fkueopjs2P53fLMHt61n-41" value="" style="endArrow=classic;html=1;rounded=0;exitX=0.5;exitY=1;exitDx=0;exitDy=0;" parent="1" source="fkueopjs2P53fLMHt61n-31" edge="1">
          <mxGeometry width="50" height="50" relative="1" as="geometry">
            <mxPoint x="1375" y="1116" as="sourcePoint" />
            <mxPoint x="1545" y="1126" as="targetPoint" />
          </mxGeometry>
        </mxCell>
        <mxCell id="fkueopjs2P53fLMHt61n-46" value="" style="endArrow=classic;html=1;rounded=0;exitX=0;exitY=0.5;exitDx=0;exitDy=0;entryX=0;entryY=0.5;entryDx=0;entryDy=0;" parent="1" source="fkueopjs2P53fLMHt61n-10" target="fkueopjs2P53fLMHt61n-6" edge="1">
          <mxGeometry width="50" height="50" relative="1" as="geometry">
            <mxPoint x="1425" y="816" as="sourcePoint" />
            <mxPoint x="1475" y="766" as="targetPoint" />
            <Array as="points">
              <mxPoint x="875" y="986" />
              <mxPoint x="875" y="810" />
            </Array>
          </mxGeometry>
        </mxCell>
        <mxCell id="fkueopjs2P53fLMHt61n-47" value="is_admin=False" style="rounded=0;whiteSpace=wrap;html=1;" parent="1" vertex="1">
          <mxGeometry x="1325" y="1047" width="110" height="50" as="geometry" />
        </mxCell>
        <mxCell id="fkueopjs2P53fLMHt61n-48" value="" style="endArrow=classic;html=1;rounded=0;exitX=1;exitY=0.5;exitDx=0;exitDy=0;" parent="1" source="fkueopjs2P53fLMHt61n-47" edge="1">
          <mxGeometry width="50" height="50" relative="1" as="geometry">
            <mxPoint x="1355" y="996" as="sourcePoint" />
            <mxPoint x="1495" y="1072" as="targetPoint" />
          </mxGeometry>
        </mxCell>
        <mxCell id="Nyh1PTEJ8lvIu2AxKn6X-1" value="output&lt;div&gt;&quot;Menu awal&quot;&lt;/div&gt;" style="shape=parallelogram;perimeter=parallelogramPerimeter;whiteSpace=wrap;html=1;fixedSize=1;" parent="1" vertex="1">
          <mxGeometry x="353" y="59" width="120" height="60" as="geometry" />
        </mxCell>
        <mxCell id="Nyh1PTEJ8lvIu2AxKn6X-2" value="" style="endArrow=classic;html=1;rounded=0;exitX=0.5;exitY=1;exitDx=0;exitDy=0;" parent="1" source="Nyh1PTEJ8lvIu2AxKn6X-1" edge="1">
          <mxGeometry width="50" height="50" relative="1" as="geometry">
            <mxPoint x="403" y="254" as="sourcePoint" />
            <mxPoint x="413" y="164" as="targetPoint" />
          </mxGeometry>
        </mxCell>
        <mxCell id="Z6F6COZ7j3O3CvgzuVXm-1" value="" style="endArrow=classic;html=1;rounded=0;" parent="1" edge="1">
          <mxGeometry width="50" height="50" relative="1" as="geometry">
            <mxPoint x="449" y="119" as="sourcePoint" />
            <mxPoint x="489" y="119" as="targetPoint" />
          </mxGeometry>
        </mxCell>
        <mxCell id="Z6F6COZ7j3O3CvgzuVXm-2" value="" style="endArrow=classic;html=1;rounded=0;" parent="1" edge="1">
          <mxGeometry width="50" height="50" relative="1" as="geometry">
            <mxPoint x="330" y="164" as="sourcePoint" />
            <mxPoint x="370" y="164" as="targetPoint" />
          </mxGeometry>
        </mxCell>
        <mxCell id="Z6F6COZ7j3O3CvgzuVXm-3" value="False" style="text;html=1;align=center;verticalAlign=middle;resizable=0;points=[];autosize=1;strokeColor=none;fillColor=none;" parent="1" vertex="1">
          <mxGeometry x="455" y="278" width="50" height="30" as="geometry" />
        </mxCell>
        <mxCell id="Z6F6COZ7j3O3CvgzuVXm-4" value="True" style="text;html=1;align=center;verticalAlign=middle;resizable=0;points=[];autosize=1;strokeColor=none;fillColor=none;" parent="1" vertex="1">
          <mxGeometry x="405" y="348" width="50" height="30" as="geometry" />
        </mxCell>
        <mxCell id="Z6F6COZ7j3O3CvgzuVXm-5" value="" style="endArrow=classic;html=1;rounded=0;" parent="1" edge="1">
          <mxGeometry width="50" height="50" relative="1" as="geometry">
            <mxPoint x="615" y="333" as="sourcePoint" />
            <mxPoint x="655" y="333" as="targetPoint" />
          </mxGeometry>
        </mxCell>
        <mxCell id="Z6F6COZ7j3O3CvgzuVXm-6" value="True" style="text;html=1;align=center;verticalAlign=middle;resizable=0;points=[];autosize=1;strokeColor=none;fillColor=none;" parent="1" vertex="1">
          <mxGeometry x="405" y="476" width="50" height="30" as="geometry" />
        </mxCell>
        <mxCell id="Z6F6COZ7j3O3CvgzuVXm-7" value="False" style="text;html=1;align=center;verticalAlign=middle;resizable=0;points=[];autosize=1;strokeColor=none;fillColor=none;" parent="1" vertex="1">
          <mxGeometry x="480" y="411" width="50" height="30" as="geometry" />
        </mxCell>
        <mxCell id="Z6F6COZ7j3O3CvgzuVXm-8" value="False" style="text;html=1;align=center;verticalAlign=middle;resizable=0;points=[];autosize=1;strokeColor=none;fillColor=none;" parent="1" vertex="1">
          <mxGeometry x="645" y="408" width="50" height="30" as="geometry" />
        </mxCell>
        <mxCell id="Z6F6COZ7j3O3CvgzuVXm-9" value="True" style="text;html=1;align=center;verticalAlign=middle;resizable=0;points=[];autosize=1;strokeColor=none;fillColor=none;" parent="1" vertex="1">
          <mxGeometry x="595" y="498" width="50" height="30" as="geometry" />
        </mxCell>
        <mxCell id="Z6F6COZ7j3O3CvgzuVXm-10" value="" style="endArrow=classic;html=1;rounded=0;" parent="1" edge="1">
          <mxGeometry width="50" height="50" relative="1" as="geometry">
            <mxPoint x="854" y="471" as="sourcePoint" />
            <mxPoint x="894" y="471" as="targetPoint" />
          </mxGeometry>
        </mxCell>
        <mxCell id="AqRJNQ7jzzJRndvZVyE6-1" value="" style="verticalLabelPosition=bottom;verticalAlign=top;html=1;shape=offPageConnector;rounded=0;size=0.5;" parent="1" vertex="1">
          <mxGeometry x="389.5" y="1271" width="60" height="60" as="geometry" />
        </mxCell>
        <mxCell id="H7KTU4IYrbcUsvzew3aA-1" value="" style="endArrow=classic;html=1;rounded=0;exitX=0.5;exitY=1;exitDx=0;exitDy=0;" parent="1" source="AqRJNQ7jzzJRndvZVyE6-1" edge="1">
          <mxGeometry width="50" height="50" relative="1" as="geometry">
            <mxPoint x="706" y="1201" as="sourcePoint" />
            <mxPoint x="420" y="1381" as="targetPoint" />
          </mxGeometry>
        </mxCell>
        <mxCell id="H7KTU4IYrbcUsvzew3aA-2" value="&lt;font style=&quot;font-size: 20px;&quot;&gt;End&lt;/font&gt;" style="ellipse;whiteSpace=wrap;html=1;" parent="1" vertex="1">
          <mxGeometry x="360.5" y="1381" width="117" height="89" as="geometry" />
        </mxCell>
        <mxCell id="H7KTU4IYrbcUsvzew3aA-3" value="&lt;font style=&quot;font-size: 16px;&quot;&gt;3&lt;/font&gt;" style="text;html=1;align=center;verticalAlign=middle;resizable=0;points=[];autosize=1;strokeColor=none;fillColor=none;" parent="1" vertex="1">
          <mxGeometry x="408" y="1280" width="30" height="30" as="geometry" />
        </mxCell>
      </root>
    </mxGraphModel>
  </diagram>
  <diagram id="Pt6Jt_puQ3bnWUJZtqHH" name="menu admin">
    <mxGraphModel dx="1526" dy="1886" grid="1" gridSize="10" guides="1" tooltips="1" connect="1" arrows="1" fold="1" page="1" pageScale="1" pageWidth="850" pageHeight="1100" math="0" shadow="0">
      <root>
        <mxCell id="0" />
        <mxCell id="1" parent="0" />
        <mxCell id="UWcRsnf6xPW09QSuK2YP-1" value="" style="verticalLabelPosition=bottom;verticalAlign=top;html=1;shape=offPageConnector;rounded=0;size=0.5;" parent="1" vertex="1">
          <mxGeometry x="1930" y="180" width="60" height="60" as="geometry" />
        </mxCell>
        <mxCell id="UWcRsnf6xPW09QSuK2YP-2" value="&lt;span style=&quot;font-size: 20px;&quot;&gt;1&lt;/span&gt;" style="text;html=1;align=center;verticalAlign=middle;resizable=0;points=[];autosize=1;strokeColor=none;fillColor=none;" parent="1" vertex="1">
          <mxGeometry x="1945" y="181" width="30" height="40" as="geometry" />
        </mxCell>
        <mxCell id="UWcRsnf6xPW09QSuK2YP-3" value="" style="endArrow=classic;html=1;rounded=0;exitX=0.5;exitY=1;exitDx=0;exitDy=0;" parent="1" source="UWcRsnf6xPW09QSuK2YP-1" edge="1">
          <mxGeometry width="50" height="50" relative="1" as="geometry">
            <mxPoint x="1950" y="270" as="sourcePoint" />
            <mxPoint x="1960" y="280" as="targetPoint" />
          </mxGeometry>
        </mxCell>
        <mxCell id="UWcRsnf6xPW09QSuK2YP-4" value="menu_admin" style="shape=process;whiteSpace=wrap;html=1;backgroundOutline=1;" parent="1" vertex="1">
          <mxGeometry x="1900" y="280" width="120" height="60" as="geometry" />
        </mxCell>
        <mxCell id="5_zbLtEDCbHVswGhI_6k-1" value="&lt;font style=&quot;font-size: 11px;&quot;&gt;output&lt;/font&gt;&lt;div&gt;&lt;font style=&quot;font-size: 11px;&quot;&gt;&quot;Menu akses admin&quot;&lt;/font&gt;&lt;/div&gt;" style="shape=parallelogram;perimeter=parallelogramPerimeter;whiteSpace=wrap;html=1;fixedSize=1;" parent="1" vertex="1">
          <mxGeometry x="1910" y="390" width="100" height="40" as="geometry" />
        </mxCell>
        <mxCell id="5_zbLtEDCbHVswGhI_6k-2" value="" style="endArrow=classic;html=1;rounded=0;exitX=0.75;exitY=1;exitDx=0;exitDy=0;" parent="1" source="5_zbLtEDCbHVswGhI_6k-1" edge="1">
          <mxGeometry width="50" height="50" relative="1" as="geometry">
            <mxPoint x="2060" y="400" as="sourcePoint" />
            <mxPoint x="2030" y="430" as="targetPoint" />
          </mxGeometry>
        </mxCell>
        <mxCell id="5_zbLtEDCbHVswGhI_6k-3" value="" style="endArrow=classic;html=1;rounded=0;exitX=0.5;exitY=1;exitDx=0;exitDy=0;" parent="1" source="UWcRsnf6xPW09QSuK2YP-4" edge="1">
          <mxGeometry width="50" height="50" relative="1" as="geometry">
            <mxPoint x="1910" y="430" as="sourcePoint" />
            <mxPoint x="1960" y="390" as="targetPoint" />
          </mxGeometry>
        </mxCell>
        <mxCell id="5_zbLtEDCbHVswGhI_6k-6" value="&lt;font style=&quot;font-size: 11px;&quot;&gt;input&lt;/font&gt;&lt;div&gt;&lt;font style=&quot;font-size: 11px;&quot;&gt;menu (1-5)&lt;/font&gt;&lt;/div&gt;" style="shape=parallelogram;perimeter=parallelogramPerimeter;whiteSpace=wrap;html=1;fixedSize=1;" parent="1" vertex="1">
          <mxGeometry x="1910" y="461" width="100" height="40" as="geometry" />
        </mxCell>
        <mxCell id="5_zbLtEDCbHVswGhI_6k-7" value="" style="endArrow=classic;html=1;rounded=0;exitX=0.5;exitY=1;exitDx=0;exitDy=0;" parent="1" edge="1">
          <mxGeometry width="50" height="50" relative="1" as="geometry">
            <mxPoint x="1960" y="431" as="sourcePoint" />
            <mxPoint x="1960" y="461" as="targetPoint" />
          </mxGeometry>
        </mxCell>
        <mxCell id="5_zbLtEDCbHVswGhI_6k-8" value="" style="endArrow=classic;html=1;rounded=0;entryX=0.215;entryY=0.049;entryDx=0;entryDy=0;entryPerimeter=0;" parent="1" target="5_zbLtEDCbHVswGhI_6k-6" edge="1">
          <mxGeometry width="50" height="50" relative="1" as="geometry">
            <mxPoint x="1900" y="463" as="sourcePoint" />
            <mxPoint x="2090" y="381" as="targetPoint" />
          </mxGeometry>
        </mxCell>
        <mxCell id="5_zbLtEDCbHVswGhI_6k-9" value="" style="endArrow=classic;html=1;rounded=0;exitX=0.5;exitY=1;exitDx=0;exitDy=0;" parent="1" source="5_zbLtEDCbHVswGhI_6k-6" edge="1">
          <mxGeometry width="50" height="50" relative="1" as="geometry">
            <mxPoint x="2090" y="501" as="sourcePoint" />
            <mxPoint x="1960" y="531" as="targetPoint" />
          </mxGeometry>
        </mxCell>
        <mxCell id="5_zbLtEDCbHVswGhI_6k-11" value="if&lt;div&gt;menu == angka&lt;/div&gt;" style="rhombus;whiteSpace=wrap;html=1;" parent="1" vertex="1">
          <mxGeometry x="1905" y="530" width="110" height="80" as="geometry" />
        </mxCell>
        <mxCell id="5_zbLtEDCbHVswGhI_6k-12" value="" style="endArrow=classic;html=1;rounded=0;exitX=1;exitY=0.5;exitDx=0;exitDy=0;" parent="1" source="5_zbLtEDCbHVswGhI_6k-11" edge="1">
          <mxGeometry width="50" height="50" relative="1" as="geometry">
            <mxPoint x="2130" y="570" as="sourcePoint" />
            <mxPoint x="2070" y="570" as="targetPoint" />
          </mxGeometry>
        </mxCell>
        <mxCell id="cD1S1e4tEUJanI3xSw1h-2" value="output&lt;div&gt;&quot;input bukan angka.&quot;&lt;/div&gt;" style="shape=parallelogram;perimeter=parallelogramPerimeter;whiteSpace=wrap;html=1;fixedSize=1;" parent="1" vertex="1">
          <mxGeometry x="2059" y="549" width="130" height="50" as="geometry" />
        </mxCell>
        <mxCell id="C8SbFn_RUwxhH3fkLRr8-1" value="" style="endArrow=classic;html=1;rounded=0;exitX=1;exitY=0.5;exitDx=0;exitDy=0;entryX=1;entryY=0.5;entryDx=0;entryDy=0;" parent="1" source="cD1S1e4tEUJanI3xSw1h-2" target="UWcRsnf6xPW09QSuK2YP-4" edge="1">
          <mxGeometry width="50" height="50" relative="1" as="geometry">
            <mxPoint x="2160" y="530" as="sourcePoint" />
            <mxPoint x="2210" y="480" as="targetPoint" />
            <Array as="points">
              <mxPoint x="2260" y="574" />
              <mxPoint x="2260" y="310" />
            </Array>
          </mxGeometry>
        </mxCell>
        <mxCell id="C8SbFn_RUwxhH3fkLRr8-2" value="&lt;font style=&quot;font-size: 11px;&quot;&gt;if menu==1&lt;/font&gt;" style="rhombus;whiteSpace=wrap;html=1;" parent="1" vertex="1">
          <mxGeometry x="1921" y="670" width="80" height="80" as="geometry" />
        </mxCell>
        <mxCell id="C8SbFn_RUwxhH3fkLRr8-3" value="" style="endArrow=classic;html=1;rounded=0;exitX=0.5;exitY=1;exitDx=0;exitDy=0;" parent="1" source="C8SbFn_RUwxhH3fkLRr8-2" edge="1">
          <mxGeometry width="50" height="50" relative="1" as="geometry">
            <mxPoint x="2101" y="700" as="sourcePoint" />
            <mxPoint x="1961" y="790" as="targetPoint" />
          </mxGeometry>
        </mxCell>
        <mxCell id="C8SbFn_RUwxhH3fkLRr8-4" value="True" style="text;html=1;align=center;verticalAlign=middle;resizable=0;points=[];autosize=1;strokeColor=none;fillColor=none;" parent="1" vertex="1">
          <mxGeometry x="1951" y="750" width="50" height="30" as="geometry" />
        </mxCell>
        <mxCell id="C8SbFn_RUwxhH3fkLRr8-5" value="&lt;font style=&quot;font-size: 11px;&quot;&gt;output&lt;/font&gt;&lt;div&gt;&lt;font style=&quot;font-size: 11px;&quot;&gt;List top drama korea&lt;/font&gt;&lt;/div&gt;" style="shape=parallelogram;perimeter=parallelogramPerimeter;whiteSpace=wrap;html=1;fixedSize=1;" parent="1" vertex="1">
          <mxGeometry x="1892" y="890" width="140" height="50" as="geometry" />
        </mxCell>
        <mxCell id="C8SbFn_RUwxhH3fkLRr8-6" value="" style="endArrow=classic;html=1;rounded=0;" parent="1" edge="1">
          <mxGeometry width="50" height="50" relative="1" as="geometry">
            <mxPoint x="2010" y="940" as="sourcePoint" />
            <mxPoint x="2040" y="940" as="targetPoint" />
          </mxGeometry>
        </mxCell>
        <mxCell id="C8SbFn_RUwxhH3fkLRr8-7" value="" style="endArrow=classic;html=1;rounded=0;exitX=1;exitY=0.5;exitDx=0;exitDy=0;entryX=0;entryY=0.5;entryDx=0;entryDy=0;" parent="1" source="C8SbFn_RUwxhH3fkLRr8-2" target="C8SbFn_RUwxhH3fkLRr8-9" edge="1">
          <mxGeometry width="50" height="50" relative="1" as="geometry">
            <mxPoint x="2241" y="630" as="sourcePoint" />
            <mxPoint x="2051" y="710" as="targetPoint" />
          </mxGeometry>
        </mxCell>
        <mxCell id="C8SbFn_RUwxhH3fkLRr8-8" value="False" style="text;html=1;align=center;verticalAlign=middle;resizable=0;points=[];autosize=1;strokeColor=none;fillColor=none;" parent="1" vertex="1">
          <mxGeometry x="2050" y="678" width="50" height="30" as="geometry" />
        </mxCell>
        <mxCell id="C8SbFn_RUwxhH3fkLRr8-9" value="&lt;font style=&quot;font-size: 11px;&quot;&gt;elif menu==2&lt;/font&gt;" style="rhombus;whiteSpace=wrap;html=1;" parent="1" vertex="1">
          <mxGeometry x="2155" y="670" width="80" height="80" as="geometry" />
        </mxCell>
        <mxCell id="C8SbFn_RUwxhH3fkLRr8-14" value="" style="endArrow=classic;html=1;rounded=0;exitX=0.5;exitY=1;exitDx=0;exitDy=0;" parent="1" edge="1">
          <mxGeometry width="50" height="50" relative="1" as="geometry">
            <mxPoint x="2199.0000000000005" y="1048" as="sourcePoint" />
            <mxPoint x="2199" y="1083" as="targetPoint" />
          </mxGeometry>
        </mxCell>
        <mxCell id="C8SbFn_RUwxhH3fkLRr8-15" value="&lt;font style=&quot;font-size: 11px;&quot;&gt;input&lt;/font&gt;&lt;div&gt;&lt;font style=&quot;font-size: 11px;&quot;&gt;nomor genre (1-5)&lt;/font&gt;&lt;/div&gt;" style="shape=parallelogram;perimeter=parallelogramPerimeter;whiteSpace=wrap;html=1;fixedSize=1;" parent="1" vertex="1">
          <mxGeometry x="2134" y="1083" width="130" height="50" as="geometry" />
        </mxCell>
        <mxCell id="C8SbFn_RUwxhH3fkLRr8-16" value="" style="endArrow=classic;html=1;rounded=0;" parent="1" edge="1">
          <mxGeometry width="50" height="50" relative="1" as="geometry">
            <mxPoint x="2124" y="1083" as="sourcePoint" />
            <mxPoint x="2154" y="1083" as="targetPoint" />
          </mxGeometry>
        </mxCell>
        <mxCell id="C8SbFn_RUwxhH3fkLRr8-17" value="" style="endArrow=classic;html=1;rounded=0;exitX=0.5;exitY=1;exitDx=0;exitDy=0;" parent="1" source="C8SbFn_RUwxhH3fkLRr8-15" edge="1">
          <mxGeometry width="50" height="50" relative="1" as="geometry">
            <mxPoint x="2404" y="1203" as="sourcePoint" />
            <mxPoint x="2199" y="1163" as="targetPoint" />
          </mxGeometry>
        </mxCell>
        <mxCell id="C8SbFn_RUwxhH3fkLRr8-18" value="&lt;font style=&quot;font-size: 11px;&quot;&gt;if nomor==1-5&lt;/font&gt;" style="rhombus;whiteSpace=wrap;html=1;" parent="1" vertex="1">
          <mxGeometry x="2159" y="1162" width="80" height="70" as="geometry" />
        </mxCell>
        <mxCell id="C8SbFn_RUwxhH3fkLRr8-19" value="" style="endArrow=classic;html=1;rounded=0;exitX=0.5;exitY=1;exitDx=0;exitDy=0;" parent="1" source="C8SbFn_RUwxhH3fkLRr8-18" edge="1">
          <mxGeometry width="50" height="50" relative="1" as="geometry">
            <mxPoint x="2199" y="1245" as="sourcePoint" />
            <mxPoint x="2199" y="1276" as="targetPoint" />
          </mxGeometry>
        </mxCell>
        <mxCell id="C8SbFn_RUwxhH3fkLRr8-20" value="" style="endArrow=classic;html=1;rounded=0;exitX=0.5;exitY=1;exitDx=0;exitDy=0;" parent="1" edge="1">
          <mxGeometry width="50" height="50" relative="1" as="geometry">
            <mxPoint x="2199" y="1326" as="sourcePoint" />
            <mxPoint x="2199" y="1356" as="targetPoint" />
          </mxGeometry>
        </mxCell>
        <mxCell id="C8SbFn_RUwxhH3fkLRr8-21" value="&lt;font style=&quot;font-size: 11px;&quot;&gt;output&lt;/font&gt;&lt;div&gt;&lt;span style=&quot;font-size: 11px;&quot;&gt;&quot;Data berhasil ditambahkan!&quot;&lt;/span&gt;&lt;/div&gt;" style="shape=parallelogram;perimeter=parallelogramPerimeter;whiteSpace=wrap;html=1;fixedSize=1;" parent="1" vertex="1">
          <mxGeometry x="2110" y="1356" width="167" height="40" as="geometry" />
        </mxCell>
        <mxCell id="C8SbFn_RUwxhH3fkLRr8-22" value="" style="endArrow=classic;html=1;rounded=0;exitX=0.75;exitY=1;exitDx=0;exitDy=0;" parent="1" source="C8SbFn_RUwxhH3fkLRr8-21" edge="1">
          <mxGeometry width="50" height="50" relative="1" as="geometry">
            <mxPoint x="2250.2" y="1405.5500000000002" as="sourcePoint" />
            <mxPoint x="2284" y="1396" as="targetPoint" />
          </mxGeometry>
        </mxCell>
        <mxCell id="C8SbFn_RUwxhH3fkLRr8-23" value="" style="endArrow=classic;html=1;rounded=0;exitX=1;exitY=0.5;exitDx=0;exitDy=0;" parent="1" source="C8SbFn_RUwxhH3fkLRr8-18" edge="1">
          <mxGeometry width="50" height="50" relative="1" as="geometry">
            <mxPoint x="2374" y="1223" as="sourcePoint" />
            <mxPoint x="2274" y="1197" as="targetPoint" />
          </mxGeometry>
        </mxCell>
        <mxCell id="C8SbFn_RUwxhH3fkLRr8-24" value="True" style="text;html=1;align=center;verticalAlign=middle;resizable=0;points=[];autosize=1;strokeColor=none;fillColor=none;" parent="1" vertex="1">
          <mxGeometry x="2189" y="1232" width="50" height="30" as="geometry" />
        </mxCell>
        <mxCell id="C8SbFn_RUwxhH3fkLRr8-25" value="&lt;font style=&quot;font-size: 11px;&quot;&gt;output&lt;/font&gt;&lt;div&gt;&lt;font style=&quot;font-size: 11px;&quot;&gt;&quot;Nomor genre tidak valid!&quot;&lt;/font&gt;&lt;/div&gt;" style="shape=parallelogram;perimeter=parallelogramPerimeter;whiteSpace=wrap;html=1;fixedSize=1;" parent="1" vertex="1">
          <mxGeometry x="2264" y="1166.5" width="120" height="61" as="geometry" />
        </mxCell>
        <mxCell id="C8SbFn_RUwxhH3fkLRr8-26" value="" style="endArrow=classic;html=1;rounded=0;exitX=0.838;exitY=0.998;exitDx=0;exitDy=0;exitPerimeter=0;" parent="1" edge="1">
          <mxGeometry width="50" height="50" relative="1" as="geometry">
            <mxPoint x="2365" y="1226.8780000000002" as="sourcePoint" />
            <mxPoint x="2394.44" y="1226.5" as="targetPoint" />
          </mxGeometry>
        </mxCell>
        <mxCell id="C8SbFn_RUwxhH3fkLRr8-27" value="" style="endArrow=classic;html=1;rounded=0;exitX=1;exitY=0.5;exitDx=0;exitDy=0;entryX=0;entryY=0.5;entryDx=0;entryDy=0;" parent="1" source="C8SbFn_RUwxhH3fkLRr8-9" target="C8SbFn_RUwxhH3fkLRr8-28" edge="1">
          <mxGeometry width="50" height="50" relative="1" as="geometry">
            <mxPoint x="2401" y="860" as="sourcePoint" />
            <mxPoint x="2571" y="710" as="targetPoint" />
          </mxGeometry>
        </mxCell>
        <mxCell id="C8SbFn_RUwxhH3fkLRr8-28" value="&lt;font style=&quot;font-size: 11px;&quot;&gt;elif menu==3&lt;/font&gt;" style="rhombus;whiteSpace=wrap;html=1;" parent="1" vertex="1">
          <mxGeometry x="2523" y="670" width="80" height="80" as="geometry" />
        </mxCell>
        <mxCell id="C8SbFn_RUwxhH3fkLRr8-33" value="" style="endArrow=classic;html=1;rounded=0;exitX=0.5;exitY=1;exitDx=0;exitDy=0;" parent="1" edge="1">
          <mxGeometry width="50" height="50" relative="1" as="geometry">
            <mxPoint x="2571" y="1051" as="sourcePoint" />
            <mxPoint x="2571" y="1081" as="targetPoint" />
          </mxGeometry>
        </mxCell>
        <mxCell id="C8SbFn_RUwxhH3fkLRr8-34" value="&lt;font style=&quot;font-size: 11px;&quot;&gt;input&lt;/font&gt;&lt;div&gt;&lt;font style=&quot;font-size: 11px;&quot;&gt;nomor genre yang ingin diubah&lt;/font&gt;&lt;/div&gt;" style="shape=parallelogram;perimeter=parallelogramPerimeter;whiteSpace=wrap;html=1;fixedSize=1;" parent="1" vertex="1">
          <mxGeometry x="2501" y="1081" width="140" height="50" as="geometry" />
        </mxCell>
        <mxCell id="C8SbFn_RUwxhH3fkLRr8-35" value="" style="endArrow=classic;html=1;rounded=0;entryX=0.143;entryY=0;entryDx=0;entryDy=0;entryPerimeter=0;" parent="1" edge="1">
          <mxGeometry width="50" height="50" relative="1" as="geometry">
            <mxPoint x="2491" y="1082" as="sourcePoint" />
            <mxPoint x="2521.02" y="1082" as="targetPoint" />
          </mxGeometry>
        </mxCell>
        <mxCell id="C8SbFn_RUwxhH3fkLRr8-36" value="" style="endArrow=classic;html=1;rounded=0;exitX=0.5;exitY=1;exitDx=0;exitDy=0;" parent="1" source="C8SbFn_RUwxhH3fkLRr8-34" edge="1">
          <mxGeometry width="50" height="50" relative="1" as="geometry">
            <mxPoint x="2521" y="1211" as="sourcePoint" />
            <mxPoint x="2571" y="1161" as="targetPoint" />
          </mxGeometry>
        </mxCell>
        <mxCell id="C8SbFn_RUwxhH3fkLRr8-37" value="&lt;font style=&quot;font-size: 11px;&quot;&gt;if nomor==1-5&lt;/font&gt;" style="rhombus;whiteSpace=wrap;html=1;" parent="1" vertex="1">
          <mxGeometry x="2526" y="1161" width="90" height="60" as="geometry" />
        </mxCell>
        <mxCell id="C8SbFn_RUwxhH3fkLRr8-38" value="" style="endArrow=classic;html=1;rounded=0;exitX=0.5;exitY=1;exitDx=0;exitDy=0;entryX=0.5;entryY=0;entryDx=0;entryDy=0;" parent="1" source="C8SbFn_RUwxhH3fkLRr8-37" target="C8SbFn_RUwxhH3fkLRr8-40" edge="1">
          <mxGeometry width="50" height="50" relative="1" as="geometry">
            <mxPoint x="2521" y="1211" as="sourcePoint" />
            <mxPoint x="2571" y="1251" as="targetPoint" />
          </mxGeometry>
        </mxCell>
        <mxCell id="C8SbFn_RUwxhH3fkLRr8-39" value="True" style="text;html=1;align=center;verticalAlign=middle;resizable=0;points=[];autosize=1;strokeColor=none;fillColor=none;" parent="1" vertex="1">
          <mxGeometry x="2566" y="1217.5" width="50" height="30" as="geometry" />
        </mxCell>
        <mxCell id="C8SbFn_RUwxhH3fkLRr8-40" value="&lt;font style=&quot;font-size: 11px;&quot;&gt;input&lt;/font&gt;&lt;div&gt;&lt;font style=&quot;font-size: 11px;&quot;&gt;index dan judul&amp;nbsp;&lt;/font&gt;&lt;/div&gt;&lt;div&gt;&lt;font style=&quot;font-size: 11px;&quot;&gt;yang ingin diubah&lt;/font&gt;&lt;/div&gt;" style="shape=parallelogram;perimeter=parallelogramPerimeter;whiteSpace=wrap;html=1;fixedSize=1;" parent="1" vertex="1">
          <mxGeometry x="2497" y="1256" width="148" height="50" as="geometry" />
        </mxCell>
        <mxCell id="C8SbFn_RUwxhH3fkLRr8-41" value="" style="endArrow=classic;html=1;rounded=0;entryX=0.198;entryY=0.069;entryDx=0;entryDy=0;entryPerimeter=0;" parent="1" edge="1">
          <mxGeometry width="50" height="50" relative="1" as="geometry">
            <mxPoint x="2485" y="1256" as="sourcePoint" />
            <mxPoint x="2518.76" y="1256.45" as="targetPoint" />
          </mxGeometry>
        </mxCell>
        <mxCell id="C8SbFn_RUwxhH3fkLRr8-42" value="" style="endArrow=classic;html=1;rounded=0;exitX=0.5;exitY=1;exitDx=0;exitDy=0;" parent="1" source="C8SbFn_RUwxhH3fkLRr8-40" edge="1">
          <mxGeometry width="50" height="50" relative="1" as="geometry">
            <mxPoint x="2551" y="1316" as="sourcePoint" />
            <mxPoint x="2571" y="1350" as="targetPoint" />
          </mxGeometry>
        </mxCell>
        <mxCell id="C8SbFn_RUwxhH3fkLRr8-43" value="&lt;font style=&quot;font-size: 11px;&quot;&gt;output&lt;/font&gt;&lt;div&gt;&lt;font style=&quot;font-size: 11px;&quot;&gt;&quot;Data berhasil diubah!&quot;&lt;/font&gt;&lt;/div&gt;" style="shape=parallelogram;perimeter=parallelogramPerimeter;whiteSpace=wrap;html=1;fixedSize=1;" parent="1" vertex="1">
          <mxGeometry x="2496" y="1480" width="140" height="50" as="geometry" />
        </mxCell>
        <mxCell id="C8SbFn_RUwxhH3fkLRr8-44" value="" style="endArrow=classic;html=1;rounded=0;exitX=0.864;exitY=0.993;exitDx=0;exitDy=0;exitPerimeter=0;" parent="1" source="C8SbFn_RUwxhH3fkLRr8-43" edge="1">
          <mxGeometry width="50" height="50" relative="1" as="geometry">
            <mxPoint x="2556" y="1460" as="sourcePoint" />
            <mxPoint x="2646" y="1530" as="targetPoint" />
          </mxGeometry>
        </mxCell>
        <mxCell id="C8SbFn_RUwxhH3fkLRr8-45" value="" style="endArrow=classic;html=1;rounded=0;exitX=1;exitY=0.5;exitDx=0;exitDy=0;entryX=0;entryY=0.5;entryDx=0;entryDy=0;" parent="1" source="C8SbFn_RUwxhH3fkLRr8-37" target="C8SbFn_RUwxhH3fkLRr8-48" edge="1">
          <mxGeometry width="50" height="50" relative="1" as="geometry">
            <mxPoint x="2681" y="1261" as="sourcePoint" />
            <mxPoint x="2651" y="1191" as="targetPoint" />
          </mxGeometry>
        </mxCell>
        <mxCell id="C8SbFn_RUwxhH3fkLRr8-46" value="False" style="text;html=1;align=center;verticalAlign=middle;resizable=0;points=[];autosize=1;strokeColor=none;fillColor=none;" parent="1" vertex="1">
          <mxGeometry x="2227" y="1169.5" width="50" height="30" as="geometry" />
        </mxCell>
        <mxCell id="C8SbFn_RUwxhH3fkLRr8-47" value="False" style="text;html=1;align=center;verticalAlign=middle;resizable=0;points=[];autosize=1;strokeColor=none;fillColor=none;" parent="1" vertex="1">
          <mxGeometry x="2608" y="1158" width="50" height="30" as="geometry" />
        </mxCell>
        <mxCell id="C8SbFn_RUwxhH3fkLRr8-48" value="&lt;font style=&quot;font-size: 11px;&quot;&gt;output&lt;/font&gt;&lt;div&gt;&lt;font style=&quot;font-size: 11px;&quot;&gt;&quot;Nomor genre tidak valid!&quot;&lt;/font&gt;&lt;/div&gt;" style="shape=parallelogram;perimeter=parallelogramPerimeter;whiteSpace=wrap;html=1;fixedSize=1;" parent="1" vertex="1">
          <mxGeometry x="2647" y="1160.5" width="120" height="61" as="geometry" />
        </mxCell>
        <mxCell id="C8SbFn_RUwxhH3fkLRr8-49" value="" style="endArrow=classic;html=1;rounded=0;exitX=0.838;exitY=0.998;exitDx=0;exitDy=0;exitPerimeter=0;" parent="1" edge="1">
          <mxGeometry width="50" height="50" relative="1" as="geometry">
            <mxPoint x="2748" y="1220.9279999999999" as="sourcePoint" />
            <mxPoint x="2777.44" y="1220.55" as="targetPoint" />
          </mxGeometry>
        </mxCell>
        <mxCell id="C8SbFn_RUwxhH3fkLRr8-50" value="False" style="text;html=1;align=center;verticalAlign=middle;resizable=0;points=[];autosize=1;strokeColor=none;fillColor=none;" parent="1" vertex="1">
          <mxGeometry x="2330" y="681" width="50" height="30" as="geometry" />
        </mxCell>
        <mxCell id="C8SbFn_RUwxhH3fkLRr8-51" value="" style="endArrow=classic;html=1;rounded=0;exitX=1;exitY=0.5;exitDx=0;exitDy=0;entryX=0;entryY=0.5;entryDx=0;entryDy=0;" parent="1" source="C8SbFn_RUwxhH3fkLRr8-28" target="C8SbFn_RUwxhH3fkLRr8-54" edge="1">
          <mxGeometry width="50" height="50" relative="1" as="geometry">
            <mxPoint x="2603" y="710.23" as="sourcePoint" />
            <mxPoint x="2791" y="710.77" as="targetPoint" />
          </mxGeometry>
        </mxCell>
        <mxCell id="C8SbFn_RUwxhH3fkLRr8-52" value="&lt;font style=&quot;font-size: 11px;&quot;&gt;input&lt;/font&gt;&lt;div&gt;&lt;font style=&quot;font-size: 11px;&quot;&gt;judul yang ingin ditambah&lt;/font&gt;&lt;/div&gt;" style="shape=parallelogram;perimeter=parallelogramPerimeter;whiteSpace=wrap;html=1;fixedSize=1;" parent="1" vertex="1">
          <mxGeometry x="2137" y="1276" width="120" height="50" as="geometry" />
        </mxCell>
        <mxCell id="C8SbFn_RUwxhH3fkLRr8-53" value="" style="endArrow=classic;html=1;rounded=0;entryX=0.198;entryY=0.069;entryDx=0;entryDy=0;entryPerimeter=0;" parent="1" edge="1">
          <mxGeometry width="50" height="50" relative="1" as="geometry">
            <mxPoint x="2124" y="1276" as="sourcePoint" />
            <mxPoint x="2157.76" y="1276.45" as="targetPoint" />
          </mxGeometry>
        </mxCell>
        <mxCell id="C8SbFn_RUwxhH3fkLRr8-54" value="&lt;font style=&quot;font-size: 11px;&quot;&gt;elif menu==4&lt;/font&gt;" style="rhombus;whiteSpace=wrap;html=1;" parent="1" vertex="1">
          <mxGeometry x="2947" y="670" width="80" height="80" as="geometry" />
        </mxCell>
        <mxCell id="C8SbFn_RUwxhH3fkLRr8-74" value="False" style="text;html=1;align=center;verticalAlign=middle;resizable=0;points=[];autosize=1;strokeColor=none;fillColor=none;" parent="1" vertex="1">
          <mxGeometry x="2717" y="681" width="50" height="30" as="geometry" />
        </mxCell>
        <mxCell id="C8SbFn_RUwxhH3fkLRr8-75" value="&lt;font style=&quot;font-size: 11px;&quot;&gt;output&lt;/font&gt;&lt;div&gt;&lt;font style=&quot;font-size: 11px;&quot;&gt;&quot;Error! Pilihan tidak valid!&quot;&lt;/font&gt;&lt;/div&gt;" style="shape=parallelogram;perimeter=parallelogramPerimeter;whiteSpace=wrap;html=1;fixedSize=1;" parent="1" vertex="1">
          <mxGeometry x="3281" y="684" width="120" height="60" as="geometry" />
        </mxCell>
        <mxCell id="C8SbFn_RUwxhH3fkLRr8-76" value="" style="endArrow=classic;html=1;rounded=0;exitX=0.75;exitY=1;exitDx=0;exitDy=0;" parent="1" source="C8SbFn_RUwxhH3fkLRr8-75" edge="1">
          <mxGeometry width="50" height="50" relative="1" as="geometry">
            <mxPoint x="3223" y="760" as="sourcePoint" />
            <mxPoint x="3413" y="744" as="targetPoint" />
          </mxGeometry>
        </mxCell>
        <mxCell id="C8SbFn_RUwxhH3fkLRr8-79" value="" style="endArrow=classic;html=1;rounded=0;exitX=0.5;exitY=1;exitDx=0;exitDy=0;" parent="1" source="C8SbFn_RUwxhH3fkLRr8-25" edge="1">
          <mxGeometry width="50" height="50" relative="1" as="geometry">
            <mxPoint x="2534" y="1243" as="sourcePoint" />
            <mxPoint x="2325" y="1670" as="targetPoint" />
          </mxGeometry>
        </mxCell>
        <mxCell id="C8SbFn_RUwxhH3fkLRr8-80" value="" style="endArrow=classic;html=1;rounded=0;exitX=0.5;exitY=1;exitDx=0;exitDy=0;" parent="1" edge="1">
          <mxGeometry width="50" height="50" relative="1" as="geometry">
            <mxPoint x="2714" y="1221.5" as="sourcePoint" />
            <mxPoint x="2794" y="1670" as="targetPoint" />
            <Array as="points">
              <mxPoint x="2714" y="1300" />
              <mxPoint x="2794" y="1300" />
            </Array>
          </mxGeometry>
        </mxCell>
        <mxCell id="C8SbFn_RUwxhH3fkLRr8-81" value="" style="endArrow=classic;html=1;rounded=0;exitX=0.564;exitY=1.016;exitDx=0;exitDy=0;exitPerimeter=0;" parent="1" source="C8SbFn_RUwxhH3fkLRr8-43" edge="1">
          <mxGeometry width="50" height="50" relative="1" as="geometry">
            <mxPoint x="2695" y="1440" as="sourcePoint" />
            <mxPoint x="2575" y="1670" as="targetPoint" />
          </mxGeometry>
        </mxCell>
        <mxCell id="C8SbFn_RUwxhH3fkLRr8-83" value="" style="endArrow=classic;html=1;rounded=0;exitX=1;exitY=0.5;exitDx=0;exitDy=0;entryX=0;entryY=0.5;entryDx=0;entryDy=0;" parent="1" source="C8SbFn_RUwxhH3fkLRr8-54" target="C8SbFn_RUwxhH3fkLRr8-87" edge="1">
          <mxGeometry width="50" height="50" relative="1" as="geometry">
            <mxPoint x="2796" y="1060" as="sourcePoint" />
            <mxPoint x="3128" y="710" as="targetPoint" />
          </mxGeometry>
        </mxCell>
        <mxCell id="C8SbFn_RUwxhH3fkLRr8-84" value="False" style="text;html=1;align=center;verticalAlign=middle;resizable=0;points=[];autosize=1;strokeColor=none;fillColor=none;" parent="1" vertex="1">
          <mxGeometry x="3049" y="684" width="50" height="30" as="geometry" />
        </mxCell>
        <mxCell id="C8SbFn_RUwxhH3fkLRr8-85" value="" style="endArrow=classic;html=1;rounded=0;exitX=0.5;exitY=1;exitDx=0;exitDy=0;" parent="1" source="C8SbFn_RUwxhH3fkLRr8-75" edge="1">
          <mxGeometry width="50" height="50" relative="1" as="geometry">
            <mxPoint x="3126" y="980" as="sourcePoint" />
            <mxPoint x="3341" y="1670" as="targetPoint" />
          </mxGeometry>
        </mxCell>
        <mxCell id="C8SbFn_RUwxhH3fkLRr8-86" value="False" style="text;html=1;align=center;verticalAlign=middle;resizable=0;points=[];autosize=1;strokeColor=none;fillColor=none;" parent="1" vertex="1">
          <mxGeometry x="3240" y="678" width="50" height="30" as="geometry" />
        </mxCell>
        <mxCell id="C8SbFn_RUwxhH3fkLRr8-87" value="&lt;font style=&quot;font-size: 11px;&quot;&gt;elif menu==5&lt;/font&gt;" style="rhombus;whiteSpace=wrap;html=1;" parent="1" vertex="1">
          <mxGeometry x="3155" y="670" width="80" height="80" as="geometry" />
        </mxCell>
        <mxCell id="C8SbFn_RUwxhH3fkLRr8-88" value="" style="endArrow=classic;html=1;rounded=0;exitX=1;exitY=0.5;exitDx=0;exitDy=0;entryX=0.096;entryY=0.429;entryDx=0;entryDy=0;entryPerimeter=0;" parent="1" source="C8SbFn_RUwxhH3fkLRr8-87" target="C8SbFn_RUwxhH3fkLRr8-75" edge="1">
          <mxGeometry width="50" height="50" relative="1" as="geometry">
            <mxPoint x="2968" y="920" as="sourcePoint" />
            <mxPoint x="3308" y="710" as="targetPoint" />
            <Array as="points">
              <mxPoint x="3288" y="710" />
            </Array>
          </mxGeometry>
        </mxCell>
        <mxCell id="C8SbFn_RUwxhH3fkLRr8-90" value="True" style="text;html=1;align=center;verticalAlign=middle;resizable=0;points=[];autosize=1;strokeColor=none;fillColor=none;" parent="1" vertex="1">
          <mxGeometry x="3110" y="1155" width="50" height="30" as="geometry" />
        </mxCell>
        <mxCell id="C8SbFn_RUwxhH3fkLRr8-94" value="" style="endArrow=classic;html=1;rounded=0;exitX=0.5;exitY=1;exitDx=0;exitDy=0;entryX=0.5;entryY=0;entryDx=0;entryDy=0;" parent="1" source="5_zbLtEDCbHVswGhI_6k-11" target="C8SbFn_RUwxhH3fkLRr8-2" edge="1">
          <mxGeometry width="50" height="50" relative="1" as="geometry">
            <mxPoint x="2170" y="600" as="sourcePoint" />
            <mxPoint x="2220" y="550" as="targetPoint" />
          </mxGeometry>
        </mxCell>
        <mxCell id="C8SbFn_RUwxhH3fkLRr8-96" value="tampilkan_drama&lt;div&gt;(drama_korea)&lt;/div&gt;" style="shape=process;whiteSpace=wrap;html=1;backgroundOutline=1;" parent="1" vertex="1">
          <mxGeometry x="1905" y="790" width="120" height="60" as="geometry" />
        </mxCell>
        <mxCell id="C8SbFn_RUwxhH3fkLRr8-97" value="" style="endArrow=classic;html=1;rounded=0;exitX=0.5;exitY=1;exitDx=0;exitDy=0;" parent="1" source="C8SbFn_RUwxhH3fkLRr8-96" edge="1">
          <mxGeometry width="50" height="50" relative="1" as="geometry">
            <mxPoint x="2070" y="930" as="sourcePoint" />
            <mxPoint x="1965" y="890" as="targetPoint" />
          </mxGeometry>
        </mxCell>
        <mxCell id="C8SbFn_RUwxhH3fkLRr8-98" value="" style="endArrow=classic;html=1;rounded=0;exitX=0.5;exitY=1;exitDx=0;exitDy=0;" parent="1" edge="1">
          <mxGeometry width="50" height="50" relative="1" as="geometry">
            <mxPoint x="2196" y="750" as="sourcePoint" />
            <mxPoint x="2196" y="790" as="targetPoint" />
          </mxGeometry>
        </mxCell>
        <mxCell id="C8SbFn_RUwxhH3fkLRr8-99" value="True" style="text;html=1;align=center;verticalAlign=middle;resizable=0;points=[];autosize=1;strokeColor=none;fillColor=none;" parent="1" vertex="1">
          <mxGeometry x="2186" y="750" width="50" height="30" as="geometry" />
        </mxCell>
        <mxCell id="C8SbFn_RUwxhH3fkLRr8-100" value="&lt;font style=&quot;font-size: 11px;&quot;&gt;output&lt;/font&gt;&lt;div&gt;&lt;font style=&quot;font-size: 11px;&quot;&gt;List top drama korea&lt;/font&gt;&lt;/div&gt;" style="shape=parallelogram;perimeter=parallelogramPerimeter;whiteSpace=wrap;html=1;fixedSize=1;" parent="1" vertex="1">
          <mxGeometry x="2127" y="890" width="140" height="50" as="geometry" />
        </mxCell>
        <mxCell id="C8SbFn_RUwxhH3fkLRr8-101" value="" style="endArrow=classic;html=1;rounded=0;" parent="1" edge="1">
          <mxGeometry width="50" height="50" relative="1" as="geometry">
            <mxPoint x="2245" y="940" as="sourcePoint" />
            <mxPoint x="2275" y="940" as="targetPoint" />
          </mxGeometry>
        </mxCell>
        <mxCell id="C8SbFn_RUwxhH3fkLRr8-102" value="tampilkan_drama&lt;div&gt;(drama_korea)&lt;/div&gt;" style="shape=process;whiteSpace=wrap;html=1;backgroundOutline=1;" parent="1" vertex="1">
          <mxGeometry x="2140" y="790" width="120" height="60" as="geometry" />
        </mxCell>
        <mxCell id="C8SbFn_RUwxhH3fkLRr8-103" value="" style="endArrow=classic;html=1;rounded=0;exitX=0.5;exitY=1;exitDx=0;exitDy=0;" parent="1" source="C8SbFn_RUwxhH3fkLRr8-102" edge="1">
          <mxGeometry width="50" height="50" relative="1" as="geometry">
            <mxPoint x="2305" y="930" as="sourcePoint" />
            <mxPoint x="2200" y="890" as="targetPoint" />
          </mxGeometry>
        </mxCell>
        <mxCell id="C8SbFn_RUwxhH3fkLRr8-104" value="" style="endArrow=classic;html=1;rounded=0;exitX=0.5;exitY=1;exitDx=0;exitDy=0;" parent="1" edge="1">
          <mxGeometry width="50" height="50" relative="1" as="geometry">
            <mxPoint x="2563" y="751" as="sourcePoint" />
            <mxPoint x="2563" y="791" as="targetPoint" />
          </mxGeometry>
        </mxCell>
        <mxCell id="C8SbFn_RUwxhH3fkLRr8-105" value="True" style="text;html=1;align=center;verticalAlign=middle;resizable=0;points=[];autosize=1;strokeColor=none;fillColor=none;" parent="1" vertex="1">
          <mxGeometry x="2553" y="751" width="50" height="30" as="geometry" />
        </mxCell>
        <mxCell id="C8SbFn_RUwxhH3fkLRr8-106" value="&lt;font style=&quot;font-size: 11px;&quot;&gt;output&lt;/font&gt;&lt;div&gt;&lt;font style=&quot;font-size: 11px;&quot;&gt;List top drama korea&lt;/font&gt;&lt;/div&gt;" style="shape=parallelogram;perimeter=parallelogramPerimeter;whiteSpace=wrap;html=1;fixedSize=1;" parent="1" vertex="1">
          <mxGeometry x="2494" y="891" width="140" height="50" as="geometry" />
        </mxCell>
        <mxCell id="C8SbFn_RUwxhH3fkLRr8-107" value="" style="endArrow=classic;html=1;rounded=0;" parent="1" edge="1">
          <mxGeometry width="50" height="50" relative="1" as="geometry">
            <mxPoint x="2612" y="941" as="sourcePoint" />
            <mxPoint x="2642" y="941" as="targetPoint" />
          </mxGeometry>
        </mxCell>
        <mxCell id="C8SbFn_RUwxhH3fkLRr8-108" value="tampilkan_drama&lt;div&gt;(drama_korea)&lt;/div&gt;" style="shape=process;whiteSpace=wrap;html=1;backgroundOutline=1;" parent="1" vertex="1">
          <mxGeometry x="2507" y="791" width="120" height="60" as="geometry" />
        </mxCell>
        <mxCell id="C8SbFn_RUwxhH3fkLRr8-109" value="" style="endArrow=classic;html=1;rounded=0;exitX=0.5;exitY=1;exitDx=0;exitDy=0;" parent="1" source="C8SbFn_RUwxhH3fkLRr8-108" edge="1">
          <mxGeometry width="50" height="50" relative="1" as="geometry">
            <mxPoint x="2672" y="931" as="sourcePoint" />
            <mxPoint x="2567" y="891" as="targetPoint" />
          </mxGeometry>
        </mxCell>
        <mxCell id="C8SbFn_RUwxhH3fkLRr8-110" value="" style="endArrow=classic;html=1;rounded=0;exitX=0.5;exitY=1;exitDx=0;exitDy=0;" parent="1" edge="1">
          <mxGeometry width="50" height="50" relative="1" as="geometry">
            <mxPoint x="2987" y="751" as="sourcePoint" />
            <mxPoint x="2987" y="791" as="targetPoint" />
          </mxGeometry>
        </mxCell>
        <mxCell id="C8SbFn_RUwxhH3fkLRr8-111" value="True" style="text;html=1;align=center;verticalAlign=middle;resizable=0;points=[];autosize=1;strokeColor=none;fillColor=none;" parent="1" vertex="1">
          <mxGeometry x="2977" y="751" width="50" height="30" as="geometry" />
        </mxCell>
        <mxCell id="C8SbFn_RUwxhH3fkLRr8-112" value="&lt;font style=&quot;font-size: 11px;&quot;&gt;output&lt;/font&gt;&lt;div&gt;&lt;font style=&quot;font-size: 11px;&quot;&gt;List top drama korea&lt;/font&gt;&lt;/div&gt;" style="shape=parallelogram;perimeter=parallelogramPerimeter;whiteSpace=wrap;html=1;fixedSize=1;" parent="1" vertex="1">
          <mxGeometry x="2918" y="891" width="140" height="50" as="geometry" />
        </mxCell>
        <mxCell id="C8SbFn_RUwxhH3fkLRr8-113" value="" style="endArrow=classic;html=1;rounded=0;" parent="1" edge="1">
          <mxGeometry width="50" height="50" relative="1" as="geometry">
            <mxPoint x="3036" y="941" as="sourcePoint" />
            <mxPoint x="3066" y="941" as="targetPoint" />
          </mxGeometry>
        </mxCell>
        <mxCell id="C8SbFn_RUwxhH3fkLRr8-114" value="tampilkan_drama&lt;div&gt;(drama_korea)&lt;/div&gt;" style="shape=process;whiteSpace=wrap;html=1;backgroundOutline=1;" parent="1" vertex="1">
          <mxGeometry x="2931" y="791" width="120" height="60" as="geometry" />
        </mxCell>
        <mxCell id="C8SbFn_RUwxhH3fkLRr8-115" value="" style="endArrow=classic;html=1;rounded=0;exitX=0.5;exitY=1;exitDx=0;exitDy=0;" parent="1" source="C8SbFn_RUwxhH3fkLRr8-114" edge="1">
          <mxGeometry width="50" height="50" relative="1" as="geometry">
            <mxPoint x="3096" y="931" as="sourcePoint" />
            <mxPoint x="2991" y="891" as="targetPoint" />
          </mxGeometry>
        </mxCell>
        <mxCell id="C8SbFn_RUwxhH3fkLRr8-116" value="membuat_daftar" style="shape=process;whiteSpace=wrap;html=1;backgroundOutline=1;" parent="1" vertex="1">
          <mxGeometry x="2137" y="988" width="120" height="60" as="geometry" />
        </mxCell>
        <mxCell id="C8SbFn_RUwxhH3fkLRr8-117" value="" style="endArrow=classic;html=1;rounded=0;exitX=0.5;exitY=1;exitDx=0;exitDy=0;" parent="1" source="C8SbFn_RUwxhH3fkLRr8-100" edge="1">
          <mxGeometry width="50" height="50" relative="1" as="geometry">
            <mxPoint x="2290" y="1110" as="sourcePoint" />
            <mxPoint x="2197" y="990" as="targetPoint" />
          </mxGeometry>
        </mxCell>
        <mxCell id="C8SbFn_RUwxhH3fkLRr8-119" value="mengganti_daftar" style="shape=process;whiteSpace=wrap;html=1;backgroundOutline=1;" parent="1" vertex="1">
          <mxGeometry x="2510" y="990" width="120" height="60" as="geometry" />
        </mxCell>
        <mxCell id="C8SbFn_RUwxhH3fkLRr8-120" value="" style="endArrow=classic;html=1;rounded=0;exitX=0.5;exitY=1;exitDx=0;exitDy=0;" parent="1" edge="1">
          <mxGeometry width="50" height="50" relative="1" as="geometry">
            <mxPoint x="2570" y="942" as="sourcePoint" />
            <mxPoint x="2570" y="992" as="targetPoint" />
          </mxGeometry>
        </mxCell>
        <mxCell id="C8SbFn_RUwxhH3fkLRr8-121" value="if&lt;div&gt;index==0-terakhir&lt;/div&gt;" style="rhombus;whiteSpace=wrap;html=1;" parent="1" vertex="1">
          <mxGeometry x="2531" y="1350" width="80" height="80" as="geometry" />
        </mxCell>
        <mxCell id="C8SbFn_RUwxhH3fkLRr8-122" value="" style="endArrow=classic;html=1;rounded=0;exitX=0.5;exitY=1;exitDx=0;exitDy=0;" parent="1" source="C8SbFn_RUwxhH3fkLRr8-121" edge="1">
          <mxGeometry width="50" height="50" relative="1" as="geometry">
            <mxPoint x="2615" y="1429" as="sourcePoint" />
            <mxPoint x="2571" y="1479" as="targetPoint" />
          </mxGeometry>
        </mxCell>
        <mxCell id="C8SbFn_RUwxhH3fkLRr8-123" value="" style="endArrow=classic;html=1;rounded=0;exitX=1;exitY=0.5;exitDx=0;exitDy=0;" parent="1" target="C8SbFn_RUwxhH3fkLRr8-124" edge="1">
          <mxGeometry width="50" height="50" relative="1" as="geometry">
            <mxPoint x="2611" y="1389.5" as="sourcePoint" />
            <mxPoint x="2646" y="1389.5" as="targetPoint" />
          </mxGeometry>
        </mxCell>
        <mxCell id="C8SbFn_RUwxhH3fkLRr8-124" value="&lt;font style=&quot;font-size: 11px;&quot;&gt;output&lt;/font&gt;&lt;div&gt;&lt;font style=&quot;font-size: 11px;&quot;&gt;&quot;Nomor index tidak valid!&quot;&lt;/font&gt;&lt;/div&gt;" style="shape=parallelogram;perimeter=parallelogramPerimeter;whiteSpace=wrap;html=1;fixedSize=1;" parent="1" vertex="1">
          <mxGeometry x="2641" y="1359" width="120" height="61" as="geometry" />
        </mxCell>
        <mxCell id="C8SbFn_RUwxhH3fkLRr8-125" value="" style="endArrow=classic;html=1;rounded=0;exitX=0.838;exitY=0.998;exitDx=0;exitDy=0;exitPerimeter=0;" parent="1" edge="1">
          <mxGeometry width="50" height="50" relative="1" as="geometry">
            <mxPoint x="2737.56" y="1419.378" as="sourcePoint" />
            <mxPoint x="2767" y="1419" as="targetPoint" />
          </mxGeometry>
        </mxCell>
        <mxCell id="C8SbFn_RUwxhH3fkLRr8-127" value="menghapus_daftar" style="shape=process;whiteSpace=wrap;html=1;backgroundOutline=1;" parent="1" vertex="1">
          <mxGeometry x="2933" y="989" width="120" height="60" as="geometry" />
        </mxCell>
        <mxCell id="C8SbFn_RUwxhH3fkLRr8-128" value="" style="endArrow=classic;html=1;rounded=0;exitX=0.5;exitY=1;exitDx=0;exitDy=0;" parent="1" edge="1">
          <mxGeometry width="50" height="50" relative="1" as="geometry">
            <mxPoint x="2993" y="941" as="sourcePoint" />
            <mxPoint x="2993" y="991" as="targetPoint" />
          </mxGeometry>
        </mxCell>
        <mxCell id="C8SbFn_RUwxhH3fkLRr8-129" value="" style="endArrow=classic;html=1;rounded=0;exitX=0.5;exitY=1;exitDx=0;exitDy=0;" parent="1" edge="1">
          <mxGeometry width="50" height="50" relative="1" as="geometry">
            <mxPoint x="2990" y="1049" as="sourcePoint" />
            <mxPoint x="2990" y="1079" as="targetPoint" />
          </mxGeometry>
        </mxCell>
        <mxCell id="C8SbFn_RUwxhH3fkLRr8-130" value="&lt;font style=&quot;font-size: 11px;&quot;&gt;input&lt;/font&gt;&lt;div&gt;&lt;font style=&quot;font-size: 11px;&quot;&gt;nomor genre yang ingin dihapus&lt;/font&gt;&lt;/div&gt;" style="shape=parallelogram;perimeter=parallelogramPerimeter;whiteSpace=wrap;html=1;fixedSize=1;" parent="1" vertex="1">
          <mxGeometry x="2920" y="1079" width="140" height="50" as="geometry" />
        </mxCell>
        <mxCell id="C8SbFn_RUwxhH3fkLRr8-131" value="" style="endArrow=classic;html=1;rounded=0;entryX=0.143;entryY=0;entryDx=0;entryDy=0;entryPerimeter=0;" parent="1" edge="1">
          <mxGeometry width="50" height="50" relative="1" as="geometry">
            <mxPoint x="2910" y="1080" as="sourcePoint" />
            <mxPoint x="2940.02" y="1080" as="targetPoint" />
          </mxGeometry>
        </mxCell>
        <mxCell id="C8SbFn_RUwxhH3fkLRr8-132" value="" style="endArrow=classic;html=1;rounded=0;exitX=0.5;exitY=1;exitDx=0;exitDy=0;" parent="1" source="C8SbFn_RUwxhH3fkLRr8-130" edge="1">
          <mxGeometry width="50" height="50" relative="1" as="geometry">
            <mxPoint x="2940" y="1209" as="sourcePoint" />
            <mxPoint x="2990" y="1159" as="targetPoint" />
          </mxGeometry>
        </mxCell>
        <mxCell id="C8SbFn_RUwxhH3fkLRr8-133" value="&lt;font style=&quot;font-size: 11px;&quot;&gt;if nomor==1-5&lt;/font&gt;" style="rhombus;whiteSpace=wrap;html=1;" parent="1" vertex="1">
          <mxGeometry x="2945" y="1159" width="90" height="60" as="geometry" />
        </mxCell>
        <mxCell id="C8SbFn_RUwxhH3fkLRr8-134" value="" style="endArrow=classic;html=1;rounded=0;exitX=0.5;exitY=1;exitDx=0;exitDy=0;entryX=0.5;entryY=0;entryDx=0;entryDy=0;" parent="1" source="C8SbFn_RUwxhH3fkLRr8-133" target="C8SbFn_RUwxhH3fkLRr8-136" edge="1">
          <mxGeometry width="50" height="50" relative="1" as="geometry">
            <mxPoint x="2940" y="1209" as="sourcePoint" />
            <mxPoint x="2990" y="1249" as="targetPoint" />
          </mxGeometry>
        </mxCell>
        <mxCell id="C8SbFn_RUwxhH3fkLRr8-135" value="True" style="text;html=1;align=center;verticalAlign=middle;resizable=0;points=[];autosize=1;strokeColor=none;fillColor=none;" parent="1" vertex="1">
          <mxGeometry x="2985" y="1215.5" width="50" height="30" as="geometry" />
        </mxCell>
        <mxCell id="C8SbFn_RUwxhH3fkLRr8-136" value="&lt;font style=&quot;font-size: 11px;&quot;&gt;input&lt;/font&gt;&lt;div&gt;&lt;font style=&quot;font-size: 11px;&quot;&gt;index yang ingin dihapus&lt;/font&gt;&lt;/div&gt;" style="shape=parallelogram;perimeter=parallelogramPerimeter;whiteSpace=wrap;html=1;fixedSize=1;" parent="1" vertex="1">
          <mxGeometry x="2916" y="1254" width="148" height="50" as="geometry" />
        </mxCell>
        <mxCell id="C8SbFn_RUwxhH3fkLRr8-137" value="" style="endArrow=classic;html=1;rounded=0;entryX=0.198;entryY=0.069;entryDx=0;entryDy=0;entryPerimeter=0;" parent="1" edge="1">
          <mxGeometry width="50" height="50" relative="1" as="geometry">
            <mxPoint x="2904" y="1254" as="sourcePoint" />
            <mxPoint x="2937.76" y="1254.45" as="targetPoint" />
          </mxGeometry>
        </mxCell>
        <mxCell id="C8SbFn_RUwxhH3fkLRr8-138" value="" style="endArrow=classic;html=1;rounded=0;exitX=0.5;exitY=1;exitDx=0;exitDy=0;" parent="1" source="C8SbFn_RUwxhH3fkLRr8-136" edge="1">
          <mxGeometry width="50" height="50" relative="1" as="geometry">
            <mxPoint x="2970" y="1314" as="sourcePoint" />
            <mxPoint x="2990" y="1348" as="targetPoint" />
          </mxGeometry>
        </mxCell>
        <mxCell id="C8SbFn_RUwxhH3fkLRr8-139" value="&lt;font style=&quot;font-size: 11px;&quot;&gt;output&lt;/font&gt;&lt;div&gt;&lt;font style=&quot;font-size: 11px;&quot;&gt;&quot;Data berhasil dihapus!&quot;&lt;/font&gt;&lt;/div&gt;" style="shape=parallelogram;perimeter=parallelogramPerimeter;whiteSpace=wrap;html=1;fixedSize=1;" parent="1" vertex="1">
          <mxGeometry x="2915" y="1478" width="140" height="50" as="geometry" />
        </mxCell>
        <mxCell id="C8SbFn_RUwxhH3fkLRr8-140" value="" style="endArrow=classic;html=1;rounded=0;exitX=0.864;exitY=0.993;exitDx=0;exitDy=0;exitPerimeter=0;" parent="1" source="C8SbFn_RUwxhH3fkLRr8-139" edge="1">
          <mxGeometry width="50" height="50" relative="1" as="geometry">
            <mxPoint x="2975" y="1458" as="sourcePoint" />
            <mxPoint x="3065" y="1528" as="targetPoint" />
          </mxGeometry>
        </mxCell>
        <mxCell id="C8SbFn_RUwxhH3fkLRr8-141" value="" style="endArrow=classic;html=1;rounded=0;exitX=1;exitY=0.5;exitDx=0;exitDy=0;entryX=0;entryY=0.5;entryDx=0;entryDy=0;" parent="1" source="C8SbFn_RUwxhH3fkLRr8-133" target="C8SbFn_RUwxhH3fkLRr8-143" edge="1">
          <mxGeometry width="50" height="50" relative="1" as="geometry">
            <mxPoint x="3100" y="1259" as="sourcePoint" />
            <mxPoint x="3070" y="1189" as="targetPoint" />
          </mxGeometry>
        </mxCell>
        <mxCell id="C8SbFn_RUwxhH3fkLRr8-142" value="False" style="text;html=1;align=center;verticalAlign=middle;resizable=0;points=[];autosize=1;strokeColor=none;fillColor=none;" parent="1" vertex="1">
          <mxGeometry x="3027" y="1156" width="50" height="30" as="geometry" />
        </mxCell>
        <mxCell id="C8SbFn_RUwxhH3fkLRr8-143" value="&lt;font style=&quot;font-size: 11px;&quot;&gt;output&lt;/font&gt;&lt;div&gt;&lt;font style=&quot;font-size: 11px;&quot;&gt;&quot;Nomor genre tidak valid!&quot;&lt;/font&gt;&lt;/div&gt;" style="shape=parallelogram;perimeter=parallelogramPerimeter;whiteSpace=wrap;html=1;fixedSize=1;" parent="1" vertex="1">
          <mxGeometry x="3066" y="1158.5" width="120" height="61" as="geometry" />
        </mxCell>
        <mxCell id="C8SbFn_RUwxhH3fkLRr8-144" value="" style="endArrow=classic;html=1;rounded=0;exitX=0.838;exitY=0.998;exitDx=0;exitDy=0;exitPerimeter=0;" parent="1" edge="1">
          <mxGeometry width="50" height="50" relative="1" as="geometry">
            <mxPoint x="3167" y="1218.9279999999999" as="sourcePoint" />
            <mxPoint x="3196.44" y="1218.55" as="targetPoint" />
          </mxGeometry>
        </mxCell>
        <mxCell id="C8SbFn_RUwxhH3fkLRr8-145" value="" style="endArrow=classic;html=1;rounded=0;exitX=0.5;exitY=1;exitDx=0;exitDy=0;" parent="1" edge="1">
          <mxGeometry width="50" height="50" relative="1" as="geometry">
            <mxPoint x="3133" y="1219.5" as="sourcePoint" />
            <mxPoint x="3218" y="1670" as="targetPoint" />
            <Array as="points">
              <mxPoint x="3133" y="1280" />
              <mxPoint x="3218" y="1280" />
            </Array>
          </mxGeometry>
        </mxCell>
        <mxCell id="C8SbFn_RUwxhH3fkLRr8-146" value="" style="endArrow=classic;html=1;rounded=0;exitX=0.564;exitY=1.016;exitDx=0;exitDy=0;exitPerimeter=0;" parent="1" source="C8SbFn_RUwxhH3fkLRr8-139" edge="1">
          <mxGeometry width="50" height="50" relative="1" as="geometry">
            <mxPoint x="3114" y="1438" as="sourcePoint" />
            <mxPoint x="2994" y="1670" as="targetPoint" />
          </mxGeometry>
        </mxCell>
        <mxCell id="C8SbFn_RUwxhH3fkLRr8-147" value="if&lt;div&gt;index==0-terakhir&lt;/div&gt;" style="rhombus;whiteSpace=wrap;html=1;" parent="1" vertex="1">
          <mxGeometry x="2950" y="1348" width="80" height="80" as="geometry" />
        </mxCell>
        <mxCell id="C8SbFn_RUwxhH3fkLRr8-148" value="" style="endArrow=classic;html=1;rounded=0;exitX=0.5;exitY=1;exitDx=0;exitDy=0;" parent="1" source="C8SbFn_RUwxhH3fkLRr8-147" edge="1">
          <mxGeometry width="50" height="50" relative="1" as="geometry">
            <mxPoint x="3034" y="1427" as="sourcePoint" />
            <mxPoint x="2990" y="1477" as="targetPoint" />
          </mxGeometry>
        </mxCell>
        <mxCell id="C8SbFn_RUwxhH3fkLRr8-149" value="" style="endArrow=classic;html=1;rounded=0;exitX=1;exitY=0.5;exitDx=0;exitDy=0;" parent="1" target="C8SbFn_RUwxhH3fkLRr8-150" edge="1">
          <mxGeometry width="50" height="50" relative="1" as="geometry">
            <mxPoint x="3030" y="1387.5" as="sourcePoint" />
            <mxPoint x="3065" y="1387.5" as="targetPoint" />
          </mxGeometry>
        </mxCell>
        <mxCell id="C8SbFn_RUwxhH3fkLRr8-150" value="&lt;font style=&quot;font-size: 11px;&quot;&gt;output&lt;/font&gt;&lt;div&gt;&lt;font style=&quot;font-size: 11px;&quot;&gt;&quot;Nomor index tidak valid!&quot;&lt;/font&gt;&lt;/div&gt;" style="shape=parallelogram;perimeter=parallelogramPerimeter;whiteSpace=wrap;html=1;fixedSize=1;" parent="1" vertex="1">
          <mxGeometry x="3060" y="1357" width="120" height="61" as="geometry" />
        </mxCell>
        <mxCell id="C8SbFn_RUwxhH3fkLRr8-151" value="" style="endArrow=classic;html=1;rounded=0;exitX=0.838;exitY=0.998;exitDx=0;exitDy=0;exitPerimeter=0;" parent="1" edge="1">
          <mxGeometry width="50" height="50" relative="1" as="geometry">
            <mxPoint x="3156.56" y="1417.378" as="sourcePoint" />
            <mxPoint x="3186" y="1417" as="targetPoint" />
          </mxGeometry>
        </mxCell>
        <mxCell id="lx9oS3hw21qOM2pUXGSL-1" value="" style="endArrow=classic;html=1;rounded=0;exitX=0.5;exitY=1;exitDx=0;exitDy=0;entryX=0.483;entryY=0.008;entryDx=0;entryDy=0;entryPerimeter=0;" parent="1" source="C8SbFn_RUwxhH3fkLRr8-87" target="lx9oS3hw21qOM2pUXGSL-2" edge="1">
          <mxGeometry width="50" height="50" relative="1" as="geometry">
            <mxPoint x="3234" y="850" as="sourcePoint" />
            <mxPoint x="3194" y="800" as="targetPoint" />
          </mxGeometry>
        </mxCell>
        <mxCell id="lx9oS3hw21qOM2pUXGSL-2" value="" style="verticalLabelPosition=bottom;verticalAlign=top;html=1;shape=offPageConnector;rounded=0;size=0.5;" parent="1" vertex="1">
          <mxGeometry x="3165" y="795" width="60" height="60" as="geometry" />
        </mxCell>
        <mxCell id="lx9oS3hw21qOM2pUXGSL-3" value="&lt;font style=&quot;font-size: 16px;&quot;&gt;3&lt;/font&gt;" style="text;html=1;align=center;verticalAlign=middle;resizable=0;points=[];autosize=1;strokeColor=none;fillColor=none;" parent="1" vertex="1">
          <mxGeometry x="3182" y="805" width="30" height="30" as="geometry" />
        </mxCell>
        <mxCell id="lx9oS3hw21qOM2pUXGSL-4" value="" style="endArrow=classic;html=1;rounded=0;exitX=0.5;exitY=1;exitDx=0;exitDy=0;" parent="1" source="C8SbFn_RUwxhH3fkLRr8-5" edge="1">
          <mxGeometry width="50" height="50" relative="1" as="geometry">
            <mxPoint x="2240" y="1140" as="sourcePoint" />
            <mxPoint x="2210" y="310" as="targetPoint" />
            <Array as="points">
              <mxPoint x="1962" y="1670" />
              <mxPoint x="2770" y="1670" />
              <mxPoint x="3520" y="1670" />
              <mxPoint x="3520" y="300" />
            </Array>
          </mxGeometry>
        </mxCell>
        <mxCell id="lx9oS3hw21qOM2pUXGSL-5" value="" style="endArrow=classic;html=1;rounded=0;exitX=0.539;exitY=1;exitDx=0;exitDy=0;exitPerimeter=0;" parent="1" source="C8SbFn_RUwxhH3fkLRr8-21" edge="1">
          <mxGeometry width="50" height="50" relative="1" as="geometry">
            <mxPoint x="2240" y="1470" as="sourcePoint" />
            <mxPoint x="2200" y="1670" as="targetPoint" />
          </mxGeometry>
        </mxCell>
        <mxCell id="lx9oS3hw21qOM2pUXGSL-6" value="" style="endArrow=classic;html=1;rounded=0;exitX=0.5;exitY=1;exitDx=0;exitDy=0;" parent="1" source="C8SbFn_RUwxhH3fkLRr8-124" edge="1">
          <mxGeometry width="50" height="50" relative="1" as="geometry">
            <mxPoint x="2754" y="1440" as="sourcePoint" />
            <mxPoint x="2704" y="1670" as="targetPoint" />
          </mxGeometry>
        </mxCell>
        <mxCell id="lx9oS3hw21qOM2pUXGSL-7" value="" style="endArrow=classic;html=1;rounded=0;exitX=0.5;exitY=1;exitDx=0;exitDy=0;" parent="1" source="C8SbFn_RUwxhH3fkLRr8-150" edge="1">
          <mxGeometry width="50" height="50" relative="1" as="geometry">
            <mxPoint x="3128" y="1490" as="sourcePoint" />
            <mxPoint x="3120" y="1670" as="targetPoint" />
          </mxGeometry>
        </mxCell>
        <mxCell id="lx9oS3hw21qOM2pUXGSL-8" value="False" style="text;html=1;align=center;verticalAlign=middle;resizable=0;points=[];autosize=1;strokeColor=none;fillColor=none;" parent="1" vertex="1">
          <mxGeometry x="2010" y="541" width="50" height="30" as="geometry" />
        </mxCell>
        <mxCell id="lx9oS3hw21qOM2pUXGSL-9" value="True" style="text;html=1;align=center;verticalAlign=middle;resizable=0;points=[];autosize=1;strokeColor=none;fillColor=none;" parent="1" vertex="1">
          <mxGeometry x="1951" y="621" width="50" height="30" as="geometry" />
        </mxCell>
        <mxCell id="lx9oS3hw21qOM2pUXGSL-10" value="False" style="text;html=1;align=center;verticalAlign=middle;resizable=0;points=[];autosize=1;strokeColor=none;fillColor=none;" parent="1" vertex="1">
          <mxGeometry x="2603" y="1359" width="50" height="30" as="geometry" />
        </mxCell>
        <mxCell id="lx9oS3hw21qOM2pUXGSL-11" value="True" style="text;html=1;align=center;verticalAlign=middle;resizable=0;points=[];autosize=1;strokeColor=none;fillColor=none;" parent="1" vertex="1">
          <mxGeometry x="2561" y="1440" width="50" height="30" as="geometry" />
        </mxCell>
        <mxCell id="lx9oS3hw21qOM2pUXGSL-12" value="False" style="text;html=1;align=center;verticalAlign=middle;resizable=0;points=[];autosize=1;strokeColor=none;fillColor=none;" parent="1" vertex="1">
          <mxGeometry x="3024" y="1357" width="50" height="30" as="geometry" />
        </mxCell>
        <mxCell id="lx9oS3hw21qOM2pUXGSL-13" value="True" style="text;html=1;align=center;verticalAlign=middle;resizable=0;points=[];autosize=1;strokeColor=none;fillColor=none;" parent="1" vertex="1">
          <mxGeometry x="2980" y="1440" width="50" height="30" as="geometry" />
        </mxCell>
        <mxCell id="lx9oS3hw21qOM2pUXGSL-14" value="True" style="text;html=1;align=center;verticalAlign=middle;resizable=0;points=[];autosize=1;strokeColor=none;fillColor=none;" parent="1" vertex="1">
          <mxGeometry x="3190" y="758" width="50" height="30" as="geometry" />
        </mxCell>
      </root>
    </mxGraphModel>
  </diagram>
  <diagram id="TXUCuHZvizBWJlCt5j-L" name="menu member">
    <mxGraphModel dx="2823" dy="1650" grid="1" gridSize="10" guides="1" tooltips="1" connect="1" arrows="1" fold="1" page="1" pageScale="1" pageWidth="850" pageHeight="1100" math="0" shadow="0">
      <root>
        <mxCell id="0" />
        <mxCell id="1" parent="0" />
        <mxCell id="Kw_Jh1Z66w7GLKIP4Prg-1" value="" style="verticalLabelPosition=bottom;verticalAlign=top;html=1;shape=offPageConnector;rounded=0;size=0.5;" parent="1" vertex="1">
          <mxGeometry x="318" y="150" width="60" height="60" as="geometry" />
        </mxCell>
        <mxCell id="Kw_Jh1Z66w7GLKIP4Prg-2" value="&lt;span style=&quot;font-size: 20px;&quot;&gt;2&lt;/span&gt;" style="text;html=1;align=center;verticalAlign=middle;resizable=0;points=[];autosize=1;strokeColor=none;fillColor=none;" parent="1" vertex="1">
          <mxGeometry x="333" y="151" width="30" height="40" as="geometry" />
        </mxCell>
        <mxCell id="Kw_Jh1Z66w7GLKIP4Prg-3" value="" style="endArrow=classic;html=1;rounded=0;exitX=0.5;exitY=1;exitDx=0;exitDy=0;" parent="1" source="Kw_Jh1Z66w7GLKIP4Prg-1" edge="1">
          <mxGeometry width="50" height="50" relative="1" as="geometry">
            <mxPoint x="338" y="240" as="sourcePoint" />
            <mxPoint x="348" y="250" as="targetPoint" />
          </mxGeometry>
        </mxCell>
        <mxCell id="Kw_Jh1Z66w7GLKIP4Prg-4" value="menu_member" style="shape=process;whiteSpace=wrap;html=1;backgroundOutline=1;" parent="1" vertex="1">
          <mxGeometry x="288" y="250" width="120" height="60" as="geometry" />
        </mxCell>
        <mxCell id="Kw_Jh1Z66w7GLKIP4Prg-5" value="&lt;font style=&quot;font-size: 11px;&quot;&gt;output&lt;/font&gt;&lt;div&gt;&lt;font style=&quot;font-size: 11px;&quot;&gt;&quot;Menu akses member&quot;&lt;/font&gt;&lt;/div&gt;" style="shape=parallelogram;perimeter=parallelogramPerimeter;whiteSpace=wrap;html=1;fixedSize=1;" parent="1" vertex="1">
          <mxGeometry x="298" y="360" width="100" height="40" as="geometry" />
        </mxCell>
        <mxCell id="Kw_Jh1Z66w7GLKIP4Prg-6" value="" style="endArrow=classic;html=1;rounded=0;exitX=0.75;exitY=1;exitDx=0;exitDy=0;" parent="1" source="Kw_Jh1Z66w7GLKIP4Prg-5" edge="1">
          <mxGeometry width="50" height="50" relative="1" as="geometry">
            <mxPoint x="448" y="370" as="sourcePoint" />
            <mxPoint x="418" y="400" as="targetPoint" />
          </mxGeometry>
        </mxCell>
        <mxCell id="Kw_Jh1Z66w7GLKIP4Prg-7" value="" style="endArrow=classic;html=1;rounded=0;exitX=0.5;exitY=1;exitDx=0;exitDy=0;" parent="1" source="Kw_Jh1Z66w7GLKIP4Prg-4" edge="1">
          <mxGeometry width="50" height="50" relative="1" as="geometry">
            <mxPoint x="298" y="400" as="sourcePoint" />
            <mxPoint x="348" y="360" as="targetPoint" />
          </mxGeometry>
        </mxCell>
        <mxCell id="Kw_Jh1Z66w7GLKIP4Prg-8" value="&lt;font style=&quot;font-size: 11px;&quot;&gt;input&lt;/font&gt;&lt;div&gt;&lt;font style=&quot;font-size: 11px;&quot;&gt;menu (1-4)&lt;/font&gt;&lt;/div&gt;" style="shape=parallelogram;perimeter=parallelogramPerimeter;whiteSpace=wrap;html=1;fixedSize=1;" parent="1" vertex="1">
          <mxGeometry x="298" y="431" width="100" height="40" as="geometry" />
        </mxCell>
        <mxCell id="Kw_Jh1Z66w7GLKIP4Prg-9" value="" style="endArrow=classic;html=1;rounded=0;exitX=0.5;exitY=1;exitDx=0;exitDy=0;" parent="1" edge="1">
          <mxGeometry width="50" height="50" relative="1" as="geometry">
            <mxPoint x="348" y="401" as="sourcePoint" />
            <mxPoint x="348" y="431" as="targetPoint" />
          </mxGeometry>
        </mxCell>
        <mxCell id="Kw_Jh1Z66w7GLKIP4Prg-10" value="" style="endArrow=classic;html=1;rounded=0;entryX=0.215;entryY=0.049;entryDx=0;entryDy=0;entryPerimeter=0;" parent="1" target="Kw_Jh1Z66w7GLKIP4Prg-8" edge="1">
          <mxGeometry width="50" height="50" relative="1" as="geometry">
            <mxPoint x="288" y="433" as="sourcePoint" />
            <mxPoint x="478" y="351" as="targetPoint" />
          </mxGeometry>
        </mxCell>
        <mxCell id="Kw_Jh1Z66w7GLKIP4Prg-11" value="" style="endArrow=classic;html=1;rounded=0;exitX=0.5;exitY=1;exitDx=0;exitDy=0;" parent="1" source="Kw_Jh1Z66w7GLKIP4Prg-8" edge="1">
          <mxGeometry width="50" height="50" relative="1" as="geometry">
            <mxPoint x="478" y="471" as="sourcePoint" />
            <mxPoint x="348" y="501" as="targetPoint" />
          </mxGeometry>
        </mxCell>
        <mxCell id="Kw_Jh1Z66w7GLKIP4Prg-12" value="if&lt;div&gt;menu == angka&lt;/div&gt;" style="rhombus;whiteSpace=wrap;html=1;" parent="1" vertex="1">
          <mxGeometry x="293" y="500" width="110" height="80" as="geometry" />
        </mxCell>
        <mxCell id="Kw_Jh1Z66w7GLKIP4Prg-13" value="" style="endArrow=classic;html=1;rounded=0;exitX=1;exitY=0.5;exitDx=0;exitDy=0;" parent="1" source="Kw_Jh1Z66w7GLKIP4Prg-12" edge="1">
          <mxGeometry width="50" height="50" relative="1" as="geometry">
            <mxPoint x="518" y="540" as="sourcePoint" />
            <mxPoint x="458" y="540" as="targetPoint" />
          </mxGeometry>
        </mxCell>
        <mxCell id="Kw_Jh1Z66w7GLKIP4Prg-14" value="output&lt;div&gt;&quot;input bukan angka.&quot;&lt;/div&gt;" style="shape=parallelogram;perimeter=parallelogramPerimeter;whiteSpace=wrap;html=1;fixedSize=1;" parent="1" vertex="1">
          <mxGeometry x="447" y="519" width="130" height="50" as="geometry" />
        </mxCell>
        <mxCell id="Kw_Jh1Z66w7GLKIP4Prg-15" value="" style="endArrow=classic;html=1;rounded=0;exitX=1;exitY=0.5;exitDx=0;exitDy=0;entryX=1;entryY=0.5;entryDx=0;entryDy=0;" parent="1" source="Kw_Jh1Z66w7GLKIP4Prg-14" target="Kw_Jh1Z66w7GLKIP4Prg-4" edge="1">
          <mxGeometry width="50" height="50" relative="1" as="geometry">
            <mxPoint x="548" y="500" as="sourcePoint" />
            <mxPoint x="598" y="450" as="targetPoint" />
            <Array as="points">
              <mxPoint x="648" y="544" />
              <mxPoint x="648" y="280" />
            </Array>
          </mxGeometry>
        </mxCell>
        <mxCell id="Kw_Jh1Z66w7GLKIP4Prg-16" value="&lt;font style=&quot;font-size: 11px;&quot;&gt;if menu==1&lt;/font&gt;" style="rhombus;whiteSpace=wrap;html=1;" parent="1" vertex="1">
          <mxGeometry x="309" y="640" width="80" height="80" as="geometry" />
        </mxCell>
        <mxCell id="Kw_Jh1Z66w7GLKIP4Prg-17" value="" style="endArrow=classic;html=1;rounded=0;exitX=0.5;exitY=1;exitDx=0;exitDy=0;" parent="1" source="Kw_Jh1Z66w7GLKIP4Prg-16" edge="1">
          <mxGeometry width="50" height="50" relative="1" as="geometry">
            <mxPoint x="489" y="670" as="sourcePoint" />
            <mxPoint x="349" y="760" as="targetPoint" />
          </mxGeometry>
        </mxCell>
        <mxCell id="Kw_Jh1Z66w7GLKIP4Prg-18" value="True" style="text;html=1;align=center;verticalAlign=middle;resizable=0;points=[];autosize=1;strokeColor=none;fillColor=none;" parent="1" vertex="1">
          <mxGeometry x="339" y="720" width="50" height="30" as="geometry" />
        </mxCell>
        <mxCell id="Kw_Jh1Z66w7GLKIP4Prg-19" value="&lt;font style=&quot;font-size: 11px;&quot;&gt;output&lt;/font&gt;&lt;div&gt;&lt;font style=&quot;font-size: 11px;&quot;&gt;List top drama korea&lt;/font&gt;&lt;/div&gt;" style="shape=parallelogram;perimeter=parallelogramPerimeter;whiteSpace=wrap;html=1;fixedSize=1;" parent="1" vertex="1">
          <mxGeometry x="280" y="860" width="140" height="50" as="geometry" />
        </mxCell>
        <mxCell id="Kw_Jh1Z66w7GLKIP4Prg-20" value="" style="endArrow=classic;html=1;rounded=0;" parent="1" edge="1">
          <mxGeometry width="50" height="50" relative="1" as="geometry">
            <mxPoint x="398" y="910" as="sourcePoint" />
            <mxPoint x="428" y="910" as="targetPoint" />
          </mxGeometry>
        </mxCell>
        <mxCell id="Kw_Jh1Z66w7GLKIP4Prg-21" value="" style="endArrow=classic;html=1;rounded=0;exitX=1;exitY=0.5;exitDx=0;exitDy=0;entryX=0;entryY=0.5;entryDx=0;entryDy=0;" parent="1" source="Kw_Jh1Z66w7GLKIP4Prg-16" target="Kw_Jh1Z66w7GLKIP4Prg-38" edge="1">
          <mxGeometry width="50" height="50" relative="1" as="geometry">
            <mxPoint x="629" y="600" as="sourcePoint" />
            <mxPoint x="543" y="679.9999999999998" as="targetPoint" />
          </mxGeometry>
        </mxCell>
        <mxCell id="Kw_Jh1Z66w7GLKIP4Prg-22" value="False" style="text;html=1;align=center;verticalAlign=middle;resizable=0;points=[];autosize=1;strokeColor=none;fillColor=none;" parent="1" vertex="1">
          <mxGeometry x="438" y="648" width="50" height="30" as="geometry" />
        </mxCell>
        <mxCell id="Kw_Jh1Z66w7GLKIP4Prg-38" value="&lt;font style=&quot;font-size: 11px;&quot;&gt;elif menu==2&lt;/font&gt;" style="rhombus;whiteSpace=wrap;html=1;" parent="1" vertex="1">
          <mxGeometry x="577" y="640" width="80" height="80" as="geometry" />
        </mxCell>
        <mxCell id="Kw_Jh1Z66w7GLKIP4Prg-39" value="" style="endArrow=classic;html=1;rounded=0;exitX=0.5;exitY=1;exitDx=0;exitDy=0;" parent="1" edge="1">
          <mxGeometry width="50" height="50" relative="1" as="geometry">
            <mxPoint x="625" y="1021" as="sourcePoint" />
            <mxPoint x="625" y="1051" as="targetPoint" />
          </mxGeometry>
        </mxCell>
        <mxCell id="Kw_Jh1Z66w7GLKIP4Prg-40" value="&lt;font style=&quot;font-size: 11px;&quot;&gt;input&lt;/font&gt;&lt;div&gt;&lt;font style=&quot;font-size: 11px;&quot;&gt;nomor genre yang ingin diubah&lt;/font&gt;&lt;/div&gt;" style="shape=parallelogram;perimeter=parallelogramPerimeter;whiteSpace=wrap;html=1;fixedSize=1;" parent="1" vertex="1">
          <mxGeometry x="555" y="1051" width="140" height="50" as="geometry" />
        </mxCell>
        <mxCell id="Kw_Jh1Z66w7GLKIP4Prg-41" value="" style="endArrow=classic;html=1;rounded=0;entryX=0.143;entryY=0;entryDx=0;entryDy=0;entryPerimeter=0;" parent="1" edge="1">
          <mxGeometry width="50" height="50" relative="1" as="geometry">
            <mxPoint x="545" y="1052" as="sourcePoint" />
            <mxPoint x="575.02" y="1052" as="targetPoint" />
          </mxGeometry>
        </mxCell>
        <mxCell id="Kw_Jh1Z66w7GLKIP4Prg-42" value="" style="endArrow=classic;html=1;rounded=0;exitX=0.5;exitY=1;exitDx=0;exitDy=0;" parent="1" source="Kw_Jh1Z66w7GLKIP4Prg-40" edge="1">
          <mxGeometry width="50" height="50" relative="1" as="geometry">
            <mxPoint x="575" y="1181" as="sourcePoint" />
            <mxPoint x="625" y="1131" as="targetPoint" />
          </mxGeometry>
        </mxCell>
        <mxCell id="Kw_Jh1Z66w7GLKIP4Prg-43" value="&lt;font style=&quot;font-size: 11px;&quot;&gt;if nomor==1-5&lt;/font&gt;" style="rhombus;whiteSpace=wrap;html=1;" parent="1" vertex="1">
          <mxGeometry x="580" y="1131" width="90" height="60" as="geometry" />
        </mxCell>
        <mxCell id="Kw_Jh1Z66w7GLKIP4Prg-44" value="" style="endArrow=classic;html=1;rounded=0;exitX=0.5;exitY=1;exitDx=0;exitDy=0;entryX=0.5;entryY=0;entryDx=0;entryDy=0;" parent="1" source="Kw_Jh1Z66w7GLKIP4Prg-43" target="Kw_Jh1Z66w7GLKIP4Prg-46" edge="1">
          <mxGeometry width="50" height="50" relative="1" as="geometry">
            <mxPoint x="575" y="1181" as="sourcePoint" />
            <mxPoint x="625" y="1221" as="targetPoint" />
          </mxGeometry>
        </mxCell>
        <mxCell id="Kw_Jh1Z66w7GLKIP4Prg-45" value="True" style="text;html=1;align=center;verticalAlign=middle;resizable=0;points=[];autosize=1;strokeColor=none;fillColor=none;" parent="1" vertex="1">
          <mxGeometry x="620" y="1187.5" width="50" height="30" as="geometry" />
        </mxCell>
        <mxCell id="Kw_Jh1Z66w7GLKIP4Prg-46" value="&lt;font style=&quot;font-size: 11px;&quot;&gt;input&lt;/font&gt;&lt;div&gt;&lt;font style=&quot;font-size: 11px;&quot;&gt;index dan judul&amp;nbsp;&lt;/font&gt;&lt;/div&gt;&lt;div&gt;&lt;font style=&quot;font-size: 11px;&quot;&gt;yang ingin diubah&lt;/font&gt;&lt;/div&gt;" style="shape=parallelogram;perimeter=parallelogramPerimeter;whiteSpace=wrap;html=1;fixedSize=1;" parent="1" vertex="1">
          <mxGeometry x="551" y="1226" width="148" height="50" as="geometry" />
        </mxCell>
        <mxCell id="Kw_Jh1Z66w7GLKIP4Prg-47" value="" style="endArrow=classic;html=1;rounded=0;entryX=0.198;entryY=0.069;entryDx=0;entryDy=0;entryPerimeter=0;" parent="1" edge="1">
          <mxGeometry width="50" height="50" relative="1" as="geometry">
            <mxPoint x="539" y="1226" as="sourcePoint" />
            <mxPoint x="572.7600000000002" y="1226.45" as="targetPoint" />
          </mxGeometry>
        </mxCell>
        <mxCell id="Kw_Jh1Z66w7GLKIP4Prg-48" value="" style="endArrow=classic;html=1;rounded=0;exitX=0.5;exitY=1;exitDx=0;exitDy=0;" parent="1" source="Kw_Jh1Z66w7GLKIP4Prg-46" edge="1">
          <mxGeometry width="50" height="50" relative="1" as="geometry">
            <mxPoint x="605" y="1286" as="sourcePoint" />
            <mxPoint x="625" y="1320" as="targetPoint" />
          </mxGeometry>
        </mxCell>
        <mxCell id="Kw_Jh1Z66w7GLKIP4Prg-49" value="&lt;font style=&quot;font-size: 11px;&quot;&gt;output&lt;/font&gt;&lt;div&gt;&lt;font style=&quot;font-size: 11px;&quot;&gt;&quot;Data berhasil diubah!&quot;&lt;/font&gt;&lt;/div&gt;" style="shape=parallelogram;perimeter=parallelogramPerimeter;whiteSpace=wrap;html=1;fixedSize=1;" parent="1" vertex="1">
          <mxGeometry x="550" y="1450" width="140" height="50" as="geometry" />
        </mxCell>
        <mxCell id="Kw_Jh1Z66w7GLKIP4Prg-50" value="" style="endArrow=classic;html=1;rounded=0;exitX=0.864;exitY=0.993;exitDx=0;exitDy=0;exitPerimeter=0;" parent="1" source="Kw_Jh1Z66w7GLKIP4Prg-49" edge="1">
          <mxGeometry width="50" height="50" relative="1" as="geometry">
            <mxPoint x="610" y="1430" as="sourcePoint" />
            <mxPoint x="700" y="1500" as="targetPoint" />
          </mxGeometry>
        </mxCell>
        <mxCell id="Kw_Jh1Z66w7GLKIP4Prg-51" value="" style="endArrow=classic;html=1;rounded=0;exitX=1;exitY=0.5;exitDx=0;exitDy=0;entryX=0;entryY=0.5;entryDx=0;entryDy=0;" parent="1" source="Kw_Jh1Z66w7GLKIP4Prg-43" target="Kw_Jh1Z66w7GLKIP4Prg-54" edge="1">
          <mxGeometry width="50" height="50" relative="1" as="geometry">
            <mxPoint x="735" y="1231" as="sourcePoint" />
            <mxPoint x="705" y="1161" as="targetPoint" />
          </mxGeometry>
        </mxCell>
        <mxCell id="Kw_Jh1Z66w7GLKIP4Prg-53" value="False" style="text;html=1;align=center;verticalAlign=middle;resizable=0;points=[];autosize=1;strokeColor=none;fillColor=none;" parent="1" vertex="1">
          <mxGeometry x="662" y="1128" width="50" height="30" as="geometry" />
        </mxCell>
        <mxCell id="Kw_Jh1Z66w7GLKIP4Prg-54" value="&lt;font style=&quot;font-size: 11px;&quot;&gt;output&lt;/font&gt;&lt;div&gt;&lt;font style=&quot;font-size: 11px;&quot;&gt;&quot;Nomor genre tidak valid!&quot;&lt;/font&gt;&lt;/div&gt;" style="shape=parallelogram;perimeter=parallelogramPerimeter;whiteSpace=wrap;html=1;fixedSize=1;" parent="1" vertex="1">
          <mxGeometry x="701" y="1130.5" width="120" height="61" as="geometry" />
        </mxCell>
        <mxCell id="Kw_Jh1Z66w7GLKIP4Prg-55" value="" style="endArrow=classic;html=1;rounded=0;exitX=0.838;exitY=0.998;exitDx=0;exitDy=0;exitPerimeter=0;" parent="1" edge="1">
          <mxGeometry width="50" height="50" relative="1" as="geometry">
            <mxPoint x="802" y="1190.9279999999999" as="sourcePoint" />
            <mxPoint x="831.44" y="1190.55" as="targetPoint" />
          </mxGeometry>
        </mxCell>
        <mxCell id="Kw_Jh1Z66w7GLKIP4Prg-57" value="" style="endArrow=classic;html=1;rounded=0;exitX=1;exitY=0.5;exitDx=0;exitDy=0;entryX=0;entryY=0.5;entryDx=0;entryDy=0;" parent="1" source="Kw_Jh1Z66w7GLKIP4Prg-38" target="Kw_Jh1Z66w7GLKIP4Prg-60" edge="1">
          <mxGeometry width="50" height="50" relative="1" as="geometry">
            <mxPoint x="657" y="680.23" as="sourcePoint" />
            <mxPoint x="845" y="680.77" as="targetPoint" />
          </mxGeometry>
        </mxCell>
        <mxCell id="Kw_Jh1Z66w7GLKIP4Prg-60" value="&lt;font style=&quot;font-size: 11px;&quot;&gt;elif menu==3&lt;/font&gt;" style="rhombus;whiteSpace=wrap;html=1;" parent="1" vertex="1">
          <mxGeometry x="976" y="640" width="80" height="80" as="geometry" />
        </mxCell>
        <mxCell id="Kw_Jh1Z66w7GLKIP4Prg-61" value="False" style="text;html=1;align=center;verticalAlign=middle;resizable=0;points=[];autosize=1;strokeColor=none;fillColor=none;" parent="1" vertex="1">
          <mxGeometry x="771" y="651" width="50" height="30" as="geometry" />
        </mxCell>
        <mxCell id="Kw_Jh1Z66w7GLKIP4Prg-62" value="&lt;font style=&quot;font-size: 11px;&quot;&gt;output&lt;/font&gt;&lt;div&gt;&lt;font style=&quot;font-size: 11px;&quot;&gt;&quot;Error! Pilihan tidak valid!&quot;&lt;/font&gt;&lt;/div&gt;" style="shape=parallelogram;perimeter=parallelogramPerimeter;whiteSpace=wrap;html=1;fixedSize=1;" parent="1" vertex="1">
          <mxGeometry x="1301" y="654" width="120" height="60" as="geometry" />
        </mxCell>
        <mxCell id="Kw_Jh1Z66w7GLKIP4Prg-63" value="" style="endArrow=classic;html=1;rounded=0;exitX=0.75;exitY=1;exitDx=0;exitDy=0;" parent="1" source="Kw_Jh1Z66w7GLKIP4Prg-62" edge="1">
          <mxGeometry width="50" height="50" relative="1" as="geometry">
            <mxPoint x="1243" y="730" as="sourcePoint" />
            <mxPoint x="1433" y="714" as="targetPoint" />
          </mxGeometry>
        </mxCell>
        <mxCell id="Kw_Jh1Z66w7GLKIP4Prg-65" value="" style="endArrow=classic;html=1;rounded=0;exitX=0.5;exitY=1;exitDx=0;exitDy=0;" parent="1" edge="1">
          <mxGeometry width="50" height="50" relative="1" as="geometry">
            <mxPoint x="768" y="1191.5" as="sourcePoint" />
            <mxPoint x="848" y="1640" as="targetPoint" />
            <Array as="points">
              <mxPoint x="768" y="1270" />
              <mxPoint x="848" y="1270" />
            </Array>
          </mxGeometry>
        </mxCell>
        <mxCell id="Kw_Jh1Z66w7GLKIP4Prg-66" value="" style="endArrow=classic;html=1;rounded=0;exitX=0.564;exitY=1.016;exitDx=0;exitDy=0;exitPerimeter=0;" parent="1" source="Kw_Jh1Z66w7GLKIP4Prg-49" edge="1">
          <mxGeometry width="50" height="50" relative="1" as="geometry">
            <mxPoint x="749" y="1410" as="sourcePoint" />
            <mxPoint x="629" y="1640" as="targetPoint" />
          </mxGeometry>
        </mxCell>
        <mxCell id="Kw_Jh1Z66w7GLKIP4Prg-67" value="" style="endArrow=classic;html=1;rounded=0;exitX=1;exitY=0.5;exitDx=0;exitDy=0;entryX=0;entryY=0.5;entryDx=0;entryDy=0;" parent="1" source="Kw_Jh1Z66w7GLKIP4Prg-60" target="Kw_Jh1Z66w7GLKIP4Prg-71" edge="1">
          <mxGeometry width="50" height="50" relative="1" as="geometry">
            <mxPoint x="825" y="1030" as="sourcePoint" />
            <mxPoint x="1157" y="680" as="targetPoint" />
          </mxGeometry>
        </mxCell>
        <mxCell id="Kw_Jh1Z66w7GLKIP4Prg-68" value="False" style="text;html=1;align=center;verticalAlign=middle;resizable=0;points=[];autosize=1;strokeColor=none;fillColor=none;" parent="1" vertex="1">
          <mxGeometry x="1078" y="654" width="50" height="30" as="geometry" />
        </mxCell>
        <mxCell id="Kw_Jh1Z66w7GLKIP4Prg-69" value="" style="endArrow=classic;html=1;rounded=0;exitX=0.5;exitY=1;exitDx=0;exitDy=0;" parent="1" source="Kw_Jh1Z66w7GLKIP4Prg-62" edge="1">
          <mxGeometry width="50" height="50" relative="1" as="geometry">
            <mxPoint x="1155" y="950" as="sourcePoint" />
            <mxPoint x="1361" y="1640" as="targetPoint" />
          </mxGeometry>
        </mxCell>
        <mxCell id="Kw_Jh1Z66w7GLKIP4Prg-70" value="False" style="text;html=1;align=center;verticalAlign=middle;resizable=0;points=[];autosize=1;strokeColor=none;fillColor=none;" parent="1" vertex="1">
          <mxGeometry x="1260" y="648" width="50" height="30" as="geometry" />
        </mxCell>
        <mxCell id="Kw_Jh1Z66w7GLKIP4Prg-71" value="&lt;font style=&quot;font-size: 11px;&quot;&gt;elif menu==4&lt;/font&gt;" style="rhombus;whiteSpace=wrap;html=1;" parent="1" vertex="1">
          <mxGeometry x="1175" y="640" width="80" height="80" as="geometry" />
        </mxCell>
        <mxCell id="Kw_Jh1Z66w7GLKIP4Prg-72" value="" style="endArrow=classic;html=1;rounded=0;exitX=1;exitY=0.5;exitDx=0;exitDy=0;entryX=0.096;entryY=0.429;entryDx=0;entryDy=0;entryPerimeter=0;" parent="1" source="Kw_Jh1Z66w7GLKIP4Prg-71" target="Kw_Jh1Z66w7GLKIP4Prg-62" edge="1">
          <mxGeometry width="50" height="50" relative="1" as="geometry">
            <mxPoint x="988" y="890" as="sourcePoint" />
            <mxPoint x="1328" y="680" as="targetPoint" />
            <Array as="points">
              <mxPoint x="1308" y="680" />
            </Array>
          </mxGeometry>
        </mxCell>
        <mxCell id="Kw_Jh1Z66w7GLKIP4Prg-73" value="True" style="text;html=1;align=center;verticalAlign=middle;resizable=0;points=[];autosize=1;strokeColor=none;fillColor=none;" parent="1" vertex="1">
          <mxGeometry x="1139" y="1125" width="50" height="30" as="geometry" />
        </mxCell>
        <mxCell id="Kw_Jh1Z66w7GLKIP4Prg-74" value="" style="endArrow=classic;html=1;rounded=0;exitX=0.5;exitY=1;exitDx=0;exitDy=0;entryX=0.5;entryY=0;entryDx=0;entryDy=0;" parent="1" source="Kw_Jh1Z66w7GLKIP4Prg-12" target="Kw_Jh1Z66w7GLKIP4Prg-16" edge="1">
          <mxGeometry width="50" height="50" relative="1" as="geometry">
            <mxPoint x="558" y="570" as="sourcePoint" />
            <mxPoint x="608" y="520" as="targetPoint" />
          </mxGeometry>
        </mxCell>
        <mxCell id="Kw_Jh1Z66w7GLKIP4Prg-75" value="tampilkan_drama&lt;div&gt;(drama_korea)&lt;/div&gt;" style="shape=process;whiteSpace=wrap;html=1;backgroundOutline=1;" parent="1" vertex="1">
          <mxGeometry x="293" y="760" width="120" height="60" as="geometry" />
        </mxCell>
        <mxCell id="Kw_Jh1Z66w7GLKIP4Prg-76" value="" style="endArrow=classic;html=1;rounded=0;exitX=0.5;exitY=1;exitDx=0;exitDy=0;" parent="1" source="Kw_Jh1Z66w7GLKIP4Prg-75" edge="1">
          <mxGeometry width="50" height="50" relative="1" as="geometry">
            <mxPoint x="458" y="900" as="sourcePoint" />
            <mxPoint x="353" y="860" as="targetPoint" />
          </mxGeometry>
        </mxCell>
        <mxCell id="Kw_Jh1Z66w7GLKIP4Prg-83" value="" style="endArrow=classic;html=1;rounded=0;exitX=0.5;exitY=1;exitDx=0;exitDy=0;" parent="1" edge="1">
          <mxGeometry width="50" height="50" relative="1" as="geometry">
            <mxPoint x="617" y="721" as="sourcePoint" />
            <mxPoint x="617" y="761" as="targetPoint" />
          </mxGeometry>
        </mxCell>
        <mxCell id="Kw_Jh1Z66w7GLKIP4Prg-84" value="True" style="text;html=1;align=center;verticalAlign=middle;resizable=0;points=[];autosize=1;strokeColor=none;fillColor=none;" parent="1" vertex="1">
          <mxGeometry x="607" y="721" width="50" height="30" as="geometry" />
        </mxCell>
        <mxCell id="Kw_Jh1Z66w7GLKIP4Prg-85" value="&lt;font style=&quot;font-size: 11px;&quot;&gt;output&lt;/font&gt;&lt;div&gt;&lt;font style=&quot;font-size: 11px;&quot;&gt;List top drama korea&lt;/font&gt;&lt;/div&gt;" style="shape=parallelogram;perimeter=parallelogramPerimeter;whiteSpace=wrap;html=1;fixedSize=1;" parent="1" vertex="1">
          <mxGeometry x="548" y="861" width="140" height="50" as="geometry" />
        </mxCell>
        <mxCell id="Kw_Jh1Z66w7GLKIP4Prg-86" value="" style="endArrow=classic;html=1;rounded=0;" parent="1" edge="1">
          <mxGeometry width="50" height="50" relative="1" as="geometry">
            <mxPoint x="666" y="911" as="sourcePoint" />
            <mxPoint x="696" y="911" as="targetPoint" />
          </mxGeometry>
        </mxCell>
        <mxCell id="Kw_Jh1Z66w7GLKIP4Prg-87" value="tampilkan_drama&lt;div&gt;(drama_korea)&lt;/div&gt;" style="shape=process;whiteSpace=wrap;html=1;backgroundOutline=1;" parent="1" vertex="1">
          <mxGeometry x="561" y="761" width="120" height="60" as="geometry" />
        </mxCell>
        <mxCell id="Kw_Jh1Z66w7GLKIP4Prg-88" value="" style="endArrow=classic;html=1;rounded=0;exitX=0.5;exitY=1;exitDx=0;exitDy=0;" parent="1" source="Kw_Jh1Z66w7GLKIP4Prg-87" edge="1">
          <mxGeometry width="50" height="50" relative="1" as="geometry">
            <mxPoint x="726" y="901" as="sourcePoint" />
            <mxPoint x="621" y="861" as="targetPoint" />
          </mxGeometry>
        </mxCell>
        <mxCell id="Kw_Jh1Z66w7GLKIP4Prg-89" value="" style="endArrow=classic;html=1;rounded=0;exitX=0.5;exitY=1;exitDx=0;exitDy=0;" parent="1" edge="1">
          <mxGeometry width="50" height="50" relative="1" as="geometry">
            <mxPoint x="1016" y="721" as="sourcePoint" />
            <mxPoint x="1016" y="761" as="targetPoint" />
          </mxGeometry>
        </mxCell>
        <mxCell id="Kw_Jh1Z66w7GLKIP4Prg-90" value="True" style="text;html=1;align=center;verticalAlign=middle;resizable=0;points=[];autosize=1;strokeColor=none;fillColor=none;" parent="1" vertex="1">
          <mxGeometry x="1006" y="721" width="50" height="30" as="geometry" />
        </mxCell>
        <mxCell id="Kw_Jh1Z66w7GLKIP4Prg-91" value="&lt;font style=&quot;font-size: 11px;&quot;&gt;output&lt;/font&gt;&lt;div&gt;&lt;font style=&quot;font-size: 11px;&quot;&gt;List top drama korea&lt;/font&gt;&lt;/div&gt;" style="shape=parallelogram;perimeter=parallelogramPerimeter;whiteSpace=wrap;html=1;fixedSize=1;" parent="1" vertex="1">
          <mxGeometry x="947" y="861" width="140" height="50" as="geometry" />
        </mxCell>
        <mxCell id="Kw_Jh1Z66w7GLKIP4Prg-92" value="" style="endArrow=classic;html=1;rounded=0;" parent="1" edge="1">
          <mxGeometry width="50" height="50" relative="1" as="geometry">
            <mxPoint x="1065" y="911" as="sourcePoint" />
            <mxPoint x="1095" y="911" as="targetPoint" />
          </mxGeometry>
        </mxCell>
        <mxCell id="Kw_Jh1Z66w7GLKIP4Prg-93" value="tampilkan_drama&lt;div&gt;(drama_korea)&lt;/div&gt;" style="shape=process;whiteSpace=wrap;html=1;backgroundOutline=1;" parent="1" vertex="1">
          <mxGeometry x="960" y="761" width="120" height="60" as="geometry" />
        </mxCell>
        <mxCell id="Kw_Jh1Z66w7GLKIP4Prg-94" value="" style="endArrow=classic;html=1;rounded=0;exitX=0.5;exitY=1;exitDx=0;exitDy=0;" parent="1" source="Kw_Jh1Z66w7GLKIP4Prg-93" edge="1">
          <mxGeometry width="50" height="50" relative="1" as="geometry">
            <mxPoint x="1125" y="901" as="sourcePoint" />
            <mxPoint x="1020" y="861" as="targetPoint" />
          </mxGeometry>
        </mxCell>
        <mxCell id="Kw_Jh1Z66w7GLKIP4Prg-97" value="mengganti_daftar" style="shape=process;whiteSpace=wrap;html=1;backgroundOutline=1;" parent="1" vertex="1">
          <mxGeometry x="564" y="960" width="120" height="60" as="geometry" />
        </mxCell>
        <mxCell id="Kw_Jh1Z66w7GLKIP4Prg-98" value="" style="endArrow=classic;html=1;rounded=0;exitX=0.5;exitY=1;exitDx=0;exitDy=0;" parent="1" edge="1">
          <mxGeometry width="50" height="50" relative="1" as="geometry">
            <mxPoint x="624" y="912" as="sourcePoint" />
            <mxPoint x="624" y="962" as="targetPoint" />
          </mxGeometry>
        </mxCell>
        <mxCell id="Kw_Jh1Z66w7GLKIP4Prg-99" value="if&lt;div&gt;index==0-terakhir&lt;/div&gt;" style="rhombus;whiteSpace=wrap;html=1;" parent="1" vertex="1">
          <mxGeometry x="585" y="1320" width="80" height="80" as="geometry" />
        </mxCell>
        <mxCell id="Kw_Jh1Z66w7GLKIP4Prg-100" value="" style="endArrow=classic;html=1;rounded=0;exitX=0.5;exitY=1;exitDx=0;exitDy=0;" parent="1" source="Kw_Jh1Z66w7GLKIP4Prg-99" edge="1">
          <mxGeometry width="50" height="50" relative="1" as="geometry">
            <mxPoint x="669" y="1399" as="sourcePoint" />
            <mxPoint x="625" y="1449" as="targetPoint" />
          </mxGeometry>
        </mxCell>
        <mxCell id="Kw_Jh1Z66w7GLKIP4Prg-101" value="" style="endArrow=classic;html=1;rounded=0;exitX=1;exitY=0.5;exitDx=0;exitDy=0;" parent="1" target="Kw_Jh1Z66w7GLKIP4Prg-102" edge="1">
          <mxGeometry width="50" height="50" relative="1" as="geometry">
            <mxPoint x="665" y="1359.5" as="sourcePoint" />
            <mxPoint x="700" y="1359.5" as="targetPoint" />
          </mxGeometry>
        </mxCell>
        <mxCell id="Kw_Jh1Z66w7GLKIP4Prg-102" value="&lt;font style=&quot;font-size: 11px;&quot;&gt;output&lt;/font&gt;&lt;div&gt;&lt;font style=&quot;font-size: 11px;&quot;&gt;&quot;Nomor index tidak valid!&quot;&lt;/font&gt;&lt;/div&gt;" style="shape=parallelogram;perimeter=parallelogramPerimeter;whiteSpace=wrap;html=1;fixedSize=1;" parent="1" vertex="1">
          <mxGeometry x="695" y="1329" width="120" height="61" as="geometry" />
        </mxCell>
        <mxCell id="Kw_Jh1Z66w7GLKIP4Prg-103" value="" style="endArrow=classic;html=1;rounded=0;exitX=0.838;exitY=0.998;exitDx=0;exitDy=0;exitPerimeter=0;" parent="1" edge="1">
          <mxGeometry width="50" height="50" relative="1" as="geometry">
            <mxPoint x="791.56" y="1389.378" as="sourcePoint" />
            <mxPoint x="821" y="1389" as="targetPoint" />
          </mxGeometry>
        </mxCell>
        <mxCell id="Kw_Jh1Z66w7GLKIP4Prg-104" value="menghapus_daftar" style="shape=process;whiteSpace=wrap;html=1;backgroundOutline=1;" parent="1" vertex="1">
          <mxGeometry x="962" y="959" width="120" height="60" as="geometry" />
        </mxCell>
        <mxCell id="Kw_Jh1Z66w7GLKIP4Prg-105" value="" style="endArrow=classic;html=1;rounded=0;exitX=0.5;exitY=1;exitDx=0;exitDy=0;" parent="1" edge="1">
          <mxGeometry width="50" height="50" relative="1" as="geometry">
            <mxPoint x="1022" y="911" as="sourcePoint" />
            <mxPoint x="1022" y="961" as="targetPoint" />
          </mxGeometry>
        </mxCell>
        <mxCell id="Kw_Jh1Z66w7GLKIP4Prg-106" value="" style="endArrow=classic;html=1;rounded=0;exitX=0.5;exitY=1;exitDx=0;exitDy=0;" parent="1" edge="1">
          <mxGeometry width="50" height="50" relative="1" as="geometry">
            <mxPoint x="1019" y="1019" as="sourcePoint" />
            <mxPoint x="1019" y="1049" as="targetPoint" />
          </mxGeometry>
        </mxCell>
        <mxCell id="Kw_Jh1Z66w7GLKIP4Prg-107" value="&lt;font style=&quot;font-size: 11px;&quot;&gt;input&lt;/font&gt;&lt;div&gt;&lt;font style=&quot;font-size: 11px;&quot;&gt;nomor genre yang ingin dihapus&lt;/font&gt;&lt;/div&gt;" style="shape=parallelogram;perimeter=parallelogramPerimeter;whiteSpace=wrap;html=1;fixedSize=1;" parent="1" vertex="1">
          <mxGeometry x="949" y="1049" width="140" height="50" as="geometry" />
        </mxCell>
        <mxCell id="Kw_Jh1Z66w7GLKIP4Prg-108" value="" style="endArrow=classic;html=1;rounded=0;entryX=0.143;entryY=0;entryDx=0;entryDy=0;entryPerimeter=0;" parent="1" edge="1">
          <mxGeometry width="50" height="50" relative="1" as="geometry">
            <mxPoint x="939" y="1050" as="sourcePoint" />
            <mxPoint x="969.02" y="1050" as="targetPoint" />
          </mxGeometry>
        </mxCell>
        <mxCell id="Kw_Jh1Z66w7GLKIP4Prg-109" value="" style="endArrow=classic;html=1;rounded=0;exitX=0.5;exitY=1;exitDx=0;exitDy=0;" parent="1" source="Kw_Jh1Z66w7GLKIP4Prg-107" edge="1">
          <mxGeometry width="50" height="50" relative="1" as="geometry">
            <mxPoint x="969" y="1179" as="sourcePoint" />
            <mxPoint x="1019" y="1129" as="targetPoint" />
          </mxGeometry>
        </mxCell>
        <mxCell id="Kw_Jh1Z66w7GLKIP4Prg-110" value="&lt;font style=&quot;font-size: 11px;&quot;&gt;if nomor==1-5&lt;/font&gt;" style="rhombus;whiteSpace=wrap;html=1;" parent="1" vertex="1">
          <mxGeometry x="974" y="1129" width="90" height="60" as="geometry" />
        </mxCell>
        <mxCell id="Kw_Jh1Z66w7GLKIP4Prg-111" value="" style="endArrow=classic;html=1;rounded=0;exitX=0.5;exitY=1;exitDx=0;exitDy=0;entryX=0.5;entryY=0;entryDx=0;entryDy=0;" parent="1" source="Kw_Jh1Z66w7GLKIP4Prg-110" target="Kw_Jh1Z66w7GLKIP4Prg-113" edge="1">
          <mxGeometry width="50" height="50" relative="1" as="geometry">
            <mxPoint x="969" y="1179" as="sourcePoint" />
            <mxPoint x="1019" y="1219" as="targetPoint" />
          </mxGeometry>
        </mxCell>
        <mxCell id="Kw_Jh1Z66w7GLKIP4Prg-112" value="True" style="text;html=1;align=center;verticalAlign=middle;resizable=0;points=[];autosize=1;strokeColor=none;fillColor=none;" parent="1" vertex="1">
          <mxGeometry x="1014" y="1185.5" width="50" height="30" as="geometry" />
        </mxCell>
        <mxCell id="Kw_Jh1Z66w7GLKIP4Prg-113" value="&lt;font style=&quot;font-size: 11px;&quot;&gt;input&lt;/font&gt;&lt;div&gt;&lt;font style=&quot;font-size: 11px;&quot;&gt;index yang ingin dihapus&lt;/font&gt;&lt;/div&gt;" style="shape=parallelogram;perimeter=parallelogramPerimeter;whiteSpace=wrap;html=1;fixedSize=1;" parent="1" vertex="1">
          <mxGeometry x="945" y="1224" width="148" height="50" as="geometry" />
        </mxCell>
        <mxCell id="Kw_Jh1Z66w7GLKIP4Prg-114" value="" style="endArrow=classic;html=1;rounded=0;entryX=0.198;entryY=0.069;entryDx=0;entryDy=0;entryPerimeter=0;" parent="1" edge="1">
          <mxGeometry width="50" height="50" relative="1" as="geometry">
            <mxPoint x="933" y="1224" as="sourcePoint" />
            <mxPoint x="966.7600000000002" y="1224.45" as="targetPoint" />
          </mxGeometry>
        </mxCell>
        <mxCell id="Kw_Jh1Z66w7GLKIP4Prg-115" value="" style="endArrow=classic;html=1;rounded=0;exitX=0.5;exitY=1;exitDx=0;exitDy=0;" parent="1" source="Kw_Jh1Z66w7GLKIP4Prg-113" edge="1">
          <mxGeometry width="50" height="50" relative="1" as="geometry">
            <mxPoint x="999" y="1284" as="sourcePoint" />
            <mxPoint x="1019" y="1318" as="targetPoint" />
          </mxGeometry>
        </mxCell>
        <mxCell id="Kw_Jh1Z66w7GLKIP4Prg-116" value="&lt;font style=&quot;font-size: 11px;&quot;&gt;output&lt;/font&gt;&lt;div&gt;&lt;font style=&quot;font-size: 11px;&quot;&gt;&quot;Data berhasil dihapus!&quot;&lt;/font&gt;&lt;/div&gt;" style="shape=parallelogram;perimeter=parallelogramPerimeter;whiteSpace=wrap;html=1;fixedSize=1;" parent="1" vertex="1">
          <mxGeometry x="944" y="1448" width="140" height="50" as="geometry" />
        </mxCell>
        <mxCell id="Kw_Jh1Z66w7GLKIP4Prg-117" value="" style="endArrow=classic;html=1;rounded=0;exitX=0.864;exitY=0.993;exitDx=0;exitDy=0;exitPerimeter=0;" parent="1" source="Kw_Jh1Z66w7GLKIP4Prg-116" edge="1">
          <mxGeometry width="50" height="50" relative="1" as="geometry">
            <mxPoint x="1004" y="1428" as="sourcePoint" />
            <mxPoint x="1094" y="1498" as="targetPoint" />
          </mxGeometry>
        </mxCell>
        <mxCell id="Kw_Jh1Z66w7GLKIP4Prg-118" value="" style="endArrow=classic;html=1;rounded=0;exitX=1;exitY=0.5;exitDx=0;exitDy=0;entryX=0;entryY=0.5;entryDx=0;entryDy=0;" parent="1" source="Kw_Jh1Z66w7GLKIP4Prg-110" target="Kw_Jh1Z66w7GLKIP4Prg-120" edge="1">
          <mxGeometry width="50" height="50" relative="1" as="geometry">
            <mxPoint x="1129" y="1229" as="sourcePoint" />
            <mxPoint x="1099" y="1159" as="targetPoint" />
          </mxGeometry>
        </mxCell>
        <mxCell id="Kw_Jh1Z66w7GLKIP4Prg-119" value="False" style="text;html=1;align=center;verticalAlign=middle;resizable=0;points=[];autosize=1;strokeColor=none;fillColor=none;" parent="1" vertex="1">
          <mxGeometry x="1056" y="1126" width="50" height="30" as="geometry" />
        </mxCell>
        <mxCell id="Kw_Jh1Z66w7GLKIP4Prg-120" value="&lt;font style=&quot;font-size: 11px;&quot;&gt;output&lt;/font&gt;&lt;div&gt;&lt;font style=&quot;font-size: 11px;&quot;&gt;&quot;Nomor genre tidak valid!&quot;&lt;/font&gt;&lt;/div&gt;" style="shape=parallelogram;perimeter=parallelogramPerimeter;whiteSpace=wrap;html=1;fixedSize=1;" parent="1" vertex="1">
          <mxGeometry x="1095" y="1128.5" width="120" height="61" as="geometry" />
        </mxCell>
        <mxCell id="Kw_Jh1Z66w7GLKIP4Prg-121" value="" style="endArrow=classic;html=1;rounded=0;exitX=0.838;exitY=0.998;exitDx=0;exitDy=0;exitPerimeter=0;" parent="1" edge="1">
          <mxGeometry width="50" height="50" relative="1" as="geometry">
            <mxPoint x="1196" y="1188.9279999999999" as="sourcePoint" />
            <mxPoint x="1225.44" y="1188.55" as="targetPoint" />
          </mxGeometry>
        </mxCell>
        <mxCell id="Kw_Jh1Z66w7GLKIP4Prg-122" value="" style="endArrow=classic;html=1;rounded=0;exitX=0.5;exitY=1;exitDx=0;exitDy=0;" parent="1" edge="1">
          <mxGeometry width="50" height="50" relative="1" as="geometry">
            <mxPoint x="1162" y="1189.5" as="sourcePoint" />
            <mxPoint x="1247" y="1640" as="targetPoint" />
            <Array as="points">
              <mxPoint x="1162" y="1250" />
              <mxPoint x="1247" y="1250" />
            </Array>
          </mxGeometry>
        </mxCell>
        <mxCell id="Kw_Jh1Z66w7GLKIP4Prg-123" value="" style="endArrow=classic;html=1;rounded=0;exitX=0.564;exitY=1.016;exitDx=0;exitDy=0;exitPerimeter=0;" parent="1" source="Kw_Jh1Z66w7GLKIP4Prg-116" edge="1">
          <mxGeometry width="50" height="50" relative="1" as="geometry">
            <mxPoint x="1143" y="1408" as="sourcePoint" />
            <mxPoint x="1023" y="1640" as="targetPoint" />
          </mxGeometry>
        </mxCell>
        <mxCell id="Kw_Jh1Z66w7GLKIP4Prg-124" value="if&lt;div&gt;index==0-terakhir&lt;/div&gt;" style="rhombus;whiteSpace=wrap;html=1;" parent="1" vertex="1">
          <mxGeometry x="979" y="1318" width="80" height="80" as="geometry" />
        </mxCell>
        <mxCell id="Kw_Jh1Z66w7GLKIP4Prg-125" value="" style="endArrow=classic;html=1;rounded=0;exitX=0.5;exitY=1;exitDx=0;exitDy=0;" parent="1" source="Kw_Jh1Z66w7GLKIP4Prg-124" edge="1">
          <mxGeometry width="50" height="50" relative="1" as="geometry">
            <mxPoint x="1063" y="1397" as="sourcePoint" />
            <mxPoint x="1019" y="1447" as="targetPoint" />
          </mxGeometry>
        </mxCell>
        <mxCell id="Kw_Jh1Z66w7GLKIP4Prg-126" value="" style="endArrow=classic;html=1;rounded=0;exitX=1;exitY=0.5;exitDx=0;exitDy=0;" parent="1" target="Kw_Jh1Z66w7GLKIP4Prg-127" edge="1">
          <mxGeometry width="50" height="50" relative="1" as="geometry">
            <mxPoint x="1059" y="1357.5" as="sourcePoint" />
            <mxPoint x="1094" y="1357.5" as="targetPoint" />
          </mxGeometry>
        </mxCell>
        <mxCell id="Kw_Jh1Z66w7GLKIP4Prg-127" value="&lt;font style=&quot;font-size: 11px;&quot;&gt;output&lt;/font&gt;&lt;div&gt;&lt;font style=&quot;font-size: 11px;&quot;&gt;&quot;Nomor index tidak valid!&quot;&lt;/font&gt;&lt;/div&gt;" style="shape=parallelogram;perimeter=parallelogramPerimeter;whiteSpace=wrap;html=1;fixedSize=1;" parent="1" vertex="1">
          <mxGeometry x="1089" y="1327" width="120" height="61" as="geometry" />
        </mxCell>
        <mxCell id="Kw_Jh1Z66w7GLKIP4Prg-128" value="" style="endArrow=classic;html=1;rounded=0;exitX=0.838;exitY=0.998;exitDx=0;exitDy=0;exitPerimeter=0;" parent="1" edge="1">
          <mxGeometry width="50" height="50" relative="1" as="geometry">
            <mxPoint x="1185.56" y="1387.378" as="sourcePoint" />
            <mxPoint x="1215" y="1387" as="targetPoint" />
          </mxGeometry>
        </mxCell>
        <mxCell id="Kw_Jh1Z66w7GLKIP4Prg-129" value="" style="endArrow=classic;html=1;rounded=0;exitX=0.5;exitY=1;exitDx=0;exitDy=0;entryX=0.483;entryY=0.008;entryDx=0;entryDy=0;entryPerimeter=0;" parent="1" source="Kw_Jh1Z66w7GLKIP4Prg-71" target="Kw_Jh1Z66w7GLKIP4Prg-130" edge="1">
          <mxGeometry width="50" height="50" relative="1" as="geometry">
            <mxPoint x="1254" y="820" as="sourcePoint" />
            <mxPoint x="1214" y="770" as="targetPoint" />
          </mxGeometry>
        </mxCell>
        <mxCell id="Kw_Jh1Z66w7GLKIP4Prg-130" value="" style="verticalLabelPosition=bottom;verticalAlign=top;html=1;shape=offPageConnector;rounded=0;size=0.5;" parent="1" vertex="1">
          <mxGeometry x="1185" y="765" width="60" height="60" as="geometry" />
        </mxCell>
        <mxCell id="Kw_Jh1Z66w7GLKIP4Prg-131" value="&lt;font style=&quot;font-size: 16px;&quot;&gt;3&lt;/font&gt;" style="text;html=1;align=center;verticalAlign=middle;resizable=0;points=[];autosize=1;strokeColor=none;fillColor=none;" parent="1" vertex="1">
          <mxGeometry x="1202" y="775" width="30" height="30" as="geometry" />
        </mxCell>
        <mxCell id="Kw_Jh1Z66w7GLKIP4Prg-132" value="" style="endArrow=classic;html=1;rounded=0;exitX=0.5;exitY=1;exitDx=0;exitDy=0;" parent="1" source="Kw_Jh1Z66w7GLKIP4Prg-19" edge="1">
          <mxGeometry width="50" height="50" relative="1" as="geometry">
            <mxPoint x="628" y="1110" as="sourcePoint" />
            <mxPoint x="598" y="280" as="targetPoint" />
            <Array as="points">
              <mxPoint x="350" y="1640" />
              <mxPoint x="1158" y="1640" />
              <mxPoint x="1520" y="1640" />
              <mxPoint x="1520" y="280" />
            </Array>
          </mxGeometry>
        </mxCell>
        <mxCell id="Kw_Jh1Z66w7GLKIP4Prg-134" value="" style="endArrow=classic;html=1;rounded=0;exitX=0.5;exitY=1;exitDx=0;exitDy=0;" parent="1" source="Kw_Jh1Z66w7GLKIP4Prg-102" edge="1">
          <mxGeometry width="50" height="50" relative="1" as="geometry">
            <mxPoint x="808" y="1410" as="sourcePoint" />
            <mxPoint x="758" y="1640" as="targetPoint" />
          </mxGeometry>
        </mxCell>
        <mxCell id="Kw_Jh1Z66w7GLKIP4Prg-135" value="" style="endArrow=classic;html=1;rounded=0;exitX=0.5;exitY=1;exitDx=0;exitDy=0;" parent="1" source="Kw_Jh1Z66w7GLKIP4Prg-127" edge="1">
          <mxGeometry width="50" height="50" relative="1" as="geometry">
            <mxPoint x="1157" y="1460" as="sourcePoint" />
            <mxPoint x="1149" y="1640" as="targetPoint" />
          </mxGeometry>
        </mxCell>
        <mxCell id="Kw_Jh1Z66w7GLKIP4Prg-136" value="False" style="text;html=1;align=center;verticalAlign=middle;resizable=0;points=[];autosize=1;strokeColor=none;fillColor=none;" parent="1" vertex="1">
          <mxGeometry x="398" y="511" width="50" height="30" as="geometry" />
        </mxCell>
        <mxCell id="Kw_Jh1Z66w7GLKIP4Prg-137" value="True" style="text;html=1;align=center;verticalAlign=middle;resizable=0;points=[];autosize=1;strokeColor=none;fillColor=none;" parent="1" vertex="1">
          <mxGeometry x="339" y="591" width="50" height="30" as="geometry" />
        </mxCell>
        <mxCell id="Kw_Jh1Z66w7GLKIP4Prg-138" value="False" style="text;html=1;align=center;verticalAlign=middle;resizable=0;points=[];autosize=1;strokeColor=none;fillColor=none;" parent="1" vertex="1">
          <mxGeometry x="657" y="1329" width="50" height="30" as="geometry" />
        </mxCell>
        <mxCell id="Kw_Jh1Z66w7GLKIP4Prg-139" value="True" style="text;html=1;align=center;verticalAlign=middle;resizable=0;points=[];autosize=1;strokeColor=none;fillColor=none;" parent="1" vertex="1">
          <mxGeometry x="615" y="1410" width="50" height="30" as="geometry" />
        </mxCell>
        <mxCell id="Kw_Jh1Z66w7GLKIP4Prg-140" value="False" style="text;html=1;align=center;verticalAlign=middle;resizable=0;points=[];autosize=1;strokeColor=none;fillColor=none;" parent="1" vertex="1">
          <mxGeometry x="1053" y="1327" width="50" height="30" as="geometry" />
        </mxCell>
        <mxCell id="Kw_Jh1Z66w7GLKIP4Prg-141" value="True" style="text;html=1;align=center;verticalAlign=middle;resizable=0;points=[];autosize=1;strokeColor=none;fillColor=none;" parent="1" vertex="1">
          <mxGeometry x="1009" y="1410" width="50" height="30" as="geometry" />
        </mxCell>
        <mxCell id="Kw_Jh1Z66w7GLKIP4Prg-142" value="True" style="text;html=1;align=center;verticalAlign=middle;resizable=0;points=[];autosize=1;strokeColor=none;fillColor=none;" parent="1" vertex="1">
          <mxGeometry x="1210" y="728" width="50" height="30" as="geometry" />
        </mxCell>
      </root>
    </mxGraphModel>
  </diagram>
</mxfile>
